<?xml version="1.0" encoding="UTF-8"?>
<svg xmlns="http://www.w3.org/2000/svg" id="Layer_2" data-name="Layer 2" viewBox="0 0 512 512" width="512" height="512"><path d="M120,60a4,4,0,0,1,4-4,20.023,20.023,0,0,0,20-20V0H128V36a4,4,0,0,1-4,4,20.023,20.023,0,0,0-20,20V80h16Z"/><rect x="344" y="320" width="16" height="16"/><path d="M512,232V216H376V128q0-.19-.009-.381c-.609-12.8-12.045-23.619-24.973-23.619H336V40c0-23.552-13.981-40-34-40H240a8,8,0,0,0-8,8V62c0,9.067,4.795,18.057,13.156,24.662A43.957,43.957,0,0,0,264,95.327V104H232a24.027,24.027,0,0,0-24,24v32.684l-41.685-53.595A7.991,7.991,0,0,0,160,104.008V104H144a8,8,0,0,0-8-8H104a8,8,0,0,0-8,8v40a8,8,0,0,0,8,8h32a8,8,0,0,0,8-8h8v14.339a8,8,0,0,0,1.673,4.9L194.5,216H80V176a8,8,0,0,0-14.47-4.705l-64,88a8,8,0,0,0,0,9.41l64,88A8,8,0,0,0,80,352V312H229.687l-29.9,163-36.9,22.139A8,8,0,0,0,167,512h65a8,8,0,0,0,7.834-6.379L271.618,352H280v40a8,8,0,0,0,2.648,5.946L358.5,466.212l-13.927,34.817a8,8,0,0,0,12.078,9.48l56-40a8,8,0,0,0,1.007-12.167L339.313,384H408a8,8,0,0,0,8-8V312h96V296H376V232ZM144,128v-8h8v8ZM272,80h-1c-10.138,0-23-8.475-23-18V40h28.687L288,51.313V104h-8V88A8,8,0,0,0,272,80ZM72,296a8,8,0,0,0-8,8v23.4L17.892,264,64,200.6V224a8,8,0,0,0,8,8H206.885l3.788,4.9A8,8,0,0,0,217,240h23v15.278L232.6,296ZM225.486,496H213.173a38.835,38.835,0,0,1-10.451-4.1l8.394-5.036a8,8,0,0,0,3.753-5.42L238.562,352h16.717Zm96.857-106.343,73.227,73.227c-6.741,4.2-14.817,6.462-21.58,7.682l1.438-3.595a8,8,0,0,0-2.076-8.917L296,388.438V384h24A8,8,0,0,0,322.343,389.657ZM400,368H296V312H400Zm-56-72V168H328v80H256V144H240v80H220.925L168,155.605V135.316l41.685,53.595A8,8,0,0,0,224,184V128a8.009,8.009,0,0,1,8-8h56v24a8,8,0,0,0,8,8h32a8,8,0,0,0,8-8V120h15.018c4.284,0,8.683,4.053,8.982,8.229V296Z"/></svg>
