<?xml version="1.0" standalone="no"?>
<!DOCTYPE svg PUBLIC "-//W3C//DTD SVG 20010904//EN"
 "http://www.w3.org/TR/2001/REC-SVG-20010904/DTD/svg10.dtd">
<svg version="1.0" xmlns="http://www.w3.org/2000/svg"
 width="500.000000pt" height="500.000000pt" viewBox="0 0 500.000000 500.000000"
 preserveAspectRatio="xMidYMid meet">

<g transform="translate(0.000000,500.000000) scale(0.100000,-0.100000)"
fill="#bb252b" stroke="none">
<path d="M0 2500 l0 -2500 2500 0 2500 0 0 2500 0 2500 -2500 0 -2500 0 0
-2500z m4640 -5 l0 -2135 -2135 0 -2135 0 0 2135 0 2135 2135 0 2135 0 0
-2135z"/>
<path d="M570 2500 l0 -1930 1930 0 1930 0 0 1930 0 1930 -1930 0 -1930 0 0
-1930z m2714 595 c110 -23 197 -87 231 -168 22 -53 22 -160 1 -224 -9 -28 -35
-72 -58 -98 -40 -45 -120 -94 -155 -96 -10 0 12 -11 49 -23 173 -60 246 -161
236 -325 -6 -95 -36 -157 -107 -224 -61 -57 -133 -92 -233 -113 -61 -13 -119
-15 -356 -9 l-283 7 3 27 c3 23 12 29 76 50 l72 24 0 538 0 537 -72 24 c-65
20 -73 26 -76 50 l-3 27 143 4 c377 8 464 6 532 -8z m-1486 -22 c-3 -25 -11
-31 -75 -52 l-72 -23 29 -77 c15 -42 85 -229 155 -416 70 -187 134 -368 143
-402 9 -35 19 -63 22 -63 3 0 17 46 32 103 15 56 83 272 152 479 l123 377 -56
16 c-89 25 -101 32 -101 60 l0 25 210 0 210 0 0 -25 c0 -27 -27 -45 -96 -64
l-41 -11 -204 -586 c-128 -367 -210 -589 -220 -594 -9 -5 -34 -12 -55 -15
l-39 -6 -231 598 -232 598 -68 25 c-60 22 -69 29 -72 53 l-3 27 246 0 246 0
-3 -27z"/>
<path d="M2930 2764 l0 -247 118 5 c94 4 125 9 160 27 56 29 118 93 134 139
19 58 15 151 -10 203 -43 90 -113 119 -283 119 l-119 0 0 -246z"/>
<path d="M2930 2172 c0 -219 2 -251 16 -256 9 -3 65 -6 124 -6 85 0 121 4 163
20 121 45 182 137 175 265 -4 97 -35 143 -126 187 -61 30 -71 32 -208 36
l-144 5 0 -251z"/>
</g>
</svg>
