<?xml version="1.0" encoding="utf-8"?>
<!-- Generator: Adobe Illustrator 18.0.0, SVG Export Plug-In . SVG Version: 6.00 Build 0)  -->
<!DOCTYPE svg PUBLIC "-//W3C//DTD SVG 1.1//EN" "http://www.w3.org/Graphics/SVG/1.1/DTD/svg11.dtd">
<svg version="1.1" id="Layer_1" xmlns="http://www.w3.org/2000/svg" xmlns:xlink="http://www.w3.org/1999/xlink" x="0px" y="0px"
	 width="1400px" height="980px" viewBox="0 0 1400 980" enable-background="new 0 0 1400 980" xml:space="preserve">
<g>
	<defs>
		<rect id="SVGID_1_" width="1400" height="980"/>
	</defs>
	<clipPath id="SVGID_2_">
		<use xlink:href="#SVGID_1_"  overflow="visible"/>
	</clipPath>
	<rect clip-path="url(#SVGID_2_)" fill="#8CE2F9" width="1400" height="980"/>
	<path clip-path="url(#SVGID_2_)" fill="#FFFFFF" d="M1457,324c-78.8,5.5-129.4,111.8-67.6,166c-26.8-15.2-79.9,3.3-102.2,27.1
		c18.5-40.8,35.4-79.2,9.8-125.1c-25-44.7-85.6-73.6-128-40c3.5-59.6-90.4-74.1-92-16c2.4-99.1-161.2-92.6-119.6,22.4
		c-88-68.7-154,72.7-72.4,113.6c-47.8-4.9-87.1,23.9-88,72c0-40.5,6.1-87.8-36.9-107c-36.5-16.3-81.7-2.8-106.6,25.6
		c13.6-36-30.6-99.1-60.6-63.9c23.5-35.1,28.4-70.6-11.9-90.7c-25-12.5-51.5-1.1-59.1,21.9C510.4,320,495.4,314,479,314
		c-36.5,0-66,29.5-66,66c0,8,1.4,15.7,4,22.7c-21.8-1.9-43.1,3-58.4,19.3c11.4-31.9-4.8-70.2-33.7-82.1c17.1-13.6,28-34.5,28-58
		c0-40.9-33.1-74-74-74c-31.1,0-57.7,19.2-68.7,46.4c-15.3-1.3-31.7,8.8-33.5,23.2c-2-46-22.3-78.5-67.8-98.8
		C74.7,163.5,16.5,159.2-7,196l-32,20c50.6-3.5-51.1,627.4-8,684h1492c6-1.4,11.6,1.1,16,5.2V380C1461,361.3,1457,342.7,1457,324z"
		/>
	<g clip-path="url(#SVGID_2_)">
		<path fill="#FCCB2D" d="M1239.1,607.3v-39.8h28.7v-15.6h-28.7v-25.5h7.1v-11.9h-7.1v-19h7.1v-11.9h-7.1v-19h7.1v-11.9h-7.1v-19
			h7.1v-11.9h-7.1v-19h7.1v-11.9h-7.1v-13.5l-64.2-41.3l-59.5,41.3v13.5h-7.1v11.9h7.1v19h-7.1v11.9h7.1v19h-7.1v11.9h7.1v19h-7.1
			v11.9h7.1v19h-7.1v11.9h7.1v25.5h-28.7v15.6h28.7v39.8h-66.6v168.9h66.6h9.5h21.4V576.4c0-3.1,0.5-6,1.3-8.8
			c0.2-0.6,0.4-1.1,0.6-1.6c0.1-0.3,0.2-0.6,0.3-0.9c0.2-0.5,0.4-1,0.7-1.6c0.1-0.3,0.3-0.6,0.4-0.8c0.3-0.5,0.5-1.1,0.8-1.6
			c0.1-0.2,0.2-0.4,0.3-0.6c1.6-2.6,3.5-4.9,5.7-6.9c0.1-0.1,0.1-0.1,0.2-0.2c0.6-0.5,1.1-1,1.8-1.5l0,0c5.2-4,11.8-6.5,18.9-6.5
			c7.1,0,13.7,2.4,18.9,6.5c0.6,0.5,1.2,1,1.8,1.5c0.1,0.1,0.1,0.1,0.2,0.2c2.2,2,4.1,4.3,5.7,6.9c0.1,0.2,0.2,0.4,0.3,0.6
			c0.3,0.5,0.6,1,0.8,1.6c0.1,0.3,0.3,0.6,0.4,0.8c0.2,0.5,0.5,1,0.7,1.6c0.1,0.3,0.2,0.6,0.3,0.9c0.2,0.5,0.4,1.1,0.6,1.6
			c0.8,2.8,1.3,5.8,1.3,8.8v199.8h7.1h23.8h87V607.3H1239.1z"/>
		<path fill="#B52B16" d="M1194,859.3l6.6-6.6V833h-8v-20.4l-11.7-11.7v-13.1l-8.8-8.8v-23.4h-8.8L1175,744c0,0-20.4-10.2-27.7-42.3
			c-7.3-32.1-4.4-54-26.3-61.3v-21.9h-11.7v-17.5h11.7v-13.1l-7.3-7.3l-19-100.7c0,0,5.8-10.2,2.9-32.1c-2.9-21.9-7.3-51.1-7.3-51.1
			s11.7-7.3-4.4-20.4c-16.1,13.1-4.4,20.4-4.4,20.4s-4.4,29.2-7.3,51.1c-2.9,21.9,2.9,32.1,2.9,32.1l-19,100.7l-7.3,7.3v13.1h11.7
			v17.5H1051v21.9c-21.9,7.3-19,29.2-26.3,61.3C1017.4,733.7,997,744,997,744l11.7,11.7h-8.8V779l-8.8,8.8v13.1l-11.7,11.7V833h-8
			v19.7l6.6,6.6h-8.8l1.5,21.9H1086h115.3l1.5-21.9H1194z"/>
		<path fill="#FCCB2D" d="M948.8,693.7v-45.5l-25.3-25.4V583c0,0,1-11-12.9-24.9v-17.3c0,0-1-9.6-12.4-9.6v-3.6h4.9V520h-4.7v-4h8.2
			v-5h-9.3v-3.2h5.7v-6.5h-6.5v-3.2h6.5v-8.3l-7.3-7.4v-41.9l-5.8-5.8v-6.4l-4.3-4.4v-6.1l-3.6-3.6v-5.7h-3.6v-29.8l-5-14.6l-5,14.6
			v29.8h-3.6v5.7l-3.6,3.6v6.1l-4.3,4.4v6.4l-5.8,5.8v41.9l-7.3,7.4v8.3h6.5v3.2h-6.5v6.5h5.7v3.2H840v5h8.2v4h-4.7v7.6h4.9v3.6
			c-11.5,0-12.4,9.6-12.4,9.6V558c-13.9,13.9-12.9,24.9-12.9,24.9v39.8l-25.3,25.4v45.5h-13.1v193.1h178.4V693.7H948.8z"/>
		<path fill="#FCCB2D" d="M283.6,665.6v-52.1l-29-29.1v-45.6c0,0,1.1-12.6-14.8-28.6v-19.8c0,0-1.1-11-14.2-11v-4.1h5.6v-8.6h-5.3
			v-4.5h9.4v-5.8h-10.7v-3.7h6.6v-7.4h-7.4v-3.7h7.4v-9.5l-8.4-8.4v-48l-6.7-6.7v-7.3l-5-5v-7l-4.1-4.1V339h-4.1v-34.2l-5.7-16.7
			l-5.7,16.7V339h-4.1v6.6l-4.1,4.1v7l-5,5v7.3l-6.7,6.7v48l-8.4,8.4v9.5h7.4v3.7H163v7.4h6.6v3.7h-10.7v5.8h9.4v4.5H163v8.6h5.6
			v4.1c-13.1,0-14.2,11-14.2,11v19.8c-15.9,15.9-14.8,28.6-14.8,28.6v45.6l-29,29.1v52.1h-15v221.2h204.3V665.6H283.6z"/>
		<path fill="#F7AD26" d="M629.8,623.2c-9.5,10.7-23.2,17.4-35.8,21.7L578.5,630l-2.8-5.8c1.9-0.5,3.9-1.2,6-2.1
			c28.8-13.2,24.4-48.6,24.4-48.6c-10.4,11.7-26,18.7-39.5,22.9l-8.6-8l-3.2-6.5c1-0.4,2.1-0.8,3.2-1.3
			c28.8-13.2,24.4-48.6,24.4-48.6c-8.6,9.7-20.8,16.2-32.4,20.5l-11.8-11.5c22.5-10.3,19.1-37.9,19.1-37.9
			c-7.4,8.3-18.1,13.6-27.8,16.9l-11.2-12.5c1.1-0.3,2.3-0.6,3.5-1.2c14.9-6.8,12.6-25.1,12.6-25.1c-5.3,5.9-13.1,9.5-20,11.7
			l-8.8-11.1l-1.3-2.7c0.4-0.1,0.8-0.3,1.2-0.5c12.3-5.7,10.4-20.7,10.4-20.7c-4.5,5.1-11.3,8.1-17.2,9.9l-11-22.3l-8.9-41.4
			l-8.9,41.4l-11,22.3c-5.8-1.8-12.6-4.8-17.2-9.9c0,0-1.9,15.1,10.4,20.7c0.4,0.2,0.8,0.3,1.2,0.5l-1.3,2.7l-8.8,11.1
			c-6.9-2.2-14.7-5.8-20-11.7c0,0-2.3,18.2,12.6,25.1c1.2,0.6,2.4,0.9,3.5,1.2l-11.2,12.5c-9.8-3.3-20.4-8.6-27.8-16.9
			c0,0-3.5,27.6,19.1,37.9l-11.8,11.5c-11.6-4.3-23.7-10.8-32.4-20.5c0,0-4.4,35.3,24.4,48.6c1.1,0.5,2.1,0.9,3.2,1.3l-3.2,6.5
			l-8.6,8c-13.5-4.2-29-11.2-39.5-22.9c0,0-4.4,35.3,24.4,48.6c2.1,1,4.1,1.6,6,2.1l-2.8,5.8l-15.4,14.9
			c-12.6-4.3-26.3-11.1-35.8-21.7c0,0-4.4,35.3,24.4,48.6c1.9,0.9,3.6,1.5,5.4,2l-0.9,1.9v16.6v154h122h122v-154v-16.6l-0.9-1.9
			c1.7-0.5,3.5-1.1,5.4-2C634.2,658.5,629.8,623.2,629.8,623.2z"/>
		<path fill="#F7AD26" d="M252.1,691.4c-8.7,9.7-21.1,15.9-32.6,19.8l-14-13.6l-2.6-5.2c1.8-0.4,3.6-1.1,5.5-1.9
			c26.2-12,22.2-44.2,22.2-44.2c-9.5,10.6-23.6,17-35.9,20.8l-7.8-7.3l-2.9-5.9c0.9-0.3,1.9-0.7,2.9-1.2
			c26.2-12,22.2-44.2,22.2-44.2c-7.9,8.8-18.9,14.7-29.4,18.6l-10.7-10.5c20.5-9.4,17.3-34.5,17.3-34.5
			c-6.7,7.5-16.4,12.3-25.3,15.4l-10.2-11.4c1-0.2,2.1-0.6,3.2-1.1c13.6-6.2,11.5-22.8,11.5-22.8c-4.8,5.4-11.9,8.7-18.2,10.6
			l-8-10.1l-1.2-2.5c0.3-0.1,0.7-0.3,1-0.4c11.2-5.1,9.5-18.9,9.5-18.9c-4.1,4.6-10.3,7.4-15.6,9l-10-20.3l-8.1-37.6l-8.1,37.6
			l-10,20.3c-5.3-1.6-11.5-4.4-15.6-9c0,0-1.7,13.7,9.5,18.9c0.4,0.2,0.7,0.3,1,0.4l-1.2,2.5l-8,10.1c-6.3-2-13.4-5.3-18.2-10.6
			c0,0-2.1,16.6,11.5,22.8c1.1,0.5,2.2,0.9,3.2,1.1l-10.2,11.4c-8.9-3-18.6-7.9-25.3-15.4c0,0-3.2,25.1,17.3,34.5l-10.7,10.5
			c-10.5-3.9-21.6-9.8-29.4-18.6c0,0-4,32.1,22.2,44.2c1,0.4,1.9,0.8,2.9,1.2l-2.9,5.9l-7.8,7.3c-12.3-3.8-26.4-10.2-35.9-20.8
			c0,0-4,32.1,22.2,44.2c1.9,0.9,3.7,1.5,5.5,1.9l-2.6,5.2l-14,13.6c-11.4-3.9-23.9-10.1-32.6-19.8c0,0-4,32.1,22.2,44.2
			c1.7,0.8,3.3,1.4,4.9,1.8l-0.8,1.7v15.1v140h111h111v-140v-15.1l-0.8-1.7c1.6-0.4,3.2-1,4.9-1.8
			C256.1,723.5,252.1,691.4,252.1,691.4z"/>
		<path fill="#F94A21" d="M479.4,708.6c-7.8,8.8-19.1,14.4-29.5,17.9l-12.7-12.3l-2.3-4.8c1.6-0.4,3.2-1,5-1.8
			c23.8-10.9,20.1-40,20.1-40c-8.6,9.6-21.4,15.4-32.5,18.9l-7-6.6l-2.6-5.3c0.9-0.3,1.7-0.6,2.6-1c23.8-10.9,20.1-40,20.1-40
			c-7.1,8-17.1,13.3-26.7,16.9l-9.7-9.5c18.6-8.5,15.7-31.2,15.7-31.2c-6.1,6.8-14.9,11.2-22.9,13.9l-9.2-10.3
			c0.9-0.2,1.9-0.5,2.9-1c12.3-5.6,10.4-20.7,10.4-20.7c-4.4,4.9-10.8,7.8-16.5,9.6l-7.2-9.1l-1.1-2.3c0.3-0.1,0.6-0.2,0.9-0.4
			c10.1-4.7,8.6-17.1,8.6-17.1c-3.7,4.2-9.3,6.7-14.1,8.1l-9-18.4l-7.3-34.1l-7.3,34.1l-9,18.4c-4.8-1.5-10.4-3.9-14.1-8.1
			c0,0-1.6,12.4,8.6,17.1c0.3,0.1,0.6,0.3,0.9,0.4l-1.1,2.3l-7.2,9.1c-5.7-1.8-12.1-4.8-16.5-9.6c0,0-1.9,15,10.4,20.7
			c1,0.5,2,0.8,2.9,1l-9.2,10.3c-8.1-2.8-16.8-7.1-22.9-13.9c0,0-2.9,22.7,15.7,31.2l-9.7,9.5c-9.5-3.6-19.5-8.9-26.7-16.9
			c0,0-3.7,29.1,20.1,40c0.9,0.4,1.7,0.7,2.6,1L290,680l-7,6.6c-11.1-3.4-23.9-9.2-32.5-18.9c0,0-3.7,29.1,20.1,40
			c1.7,0.8,3.4,1.4,5,1.8l-2.3,4.8l-12.7,12.3c-10.4-3.5-21.7-9.1-29.5-17.9c0,0-3.7,29.1,20.1,40c1.5,0.7,3,1.2,4.4,1.6l-0.8,1.6
			v13.6v126.8h100.5h100.5V765.4v-13.6l-0.8-1.6c1.4-0.4,2.9-0.9,4.4-1.6C483.1,737.7,479.4,708.6,479.4,708.6z"/>
		<g>
			<path fill="#F7AD26" d="M719.7,492C695,640.1,577.1,703,577.1,703h47.1v185.2h95.4h95.4V703h47.1
				C862.2,703,744.4,640.1,719.7,492z"/>
			<rect x="583.9" y="678.3" fill="#F7AD26" width="5.6" height="23.6"/>
			<rect x="618.7" y="652.5" fill="#F7AD26" width="5.6" height="23.6"/>
			<rect x="654.6" y="615.5" fill="#F7AD26" width="5.6" height="23.6"/>
			<rect x="678.1" y="579.5" fill="#F7AD26" width="5.6" height="23.6"/>
			<rect x="700.6" y="535.8" fill="#F7AD26" width="5.6" height="23.6"/>
			<rect x="850.4" y="678.3" fill="#F7AD26" width="5.6" height="23.6"/>
			<rect x="815.6" y="652.5" fill="#F7AD26" width="5.6" height="23.6"/>
			<rect x="779.7" y="615.5" fill="#F7AD26" width="5.6" height="23.6"/>
			<rect x="756.1" y="579.5" fill="#F7AD26" width="5.6" height="23.6"/>
			<rect x="733.7" y="535.8" fill="#F7AD26" width="5.6" height="23.6"/>
			<rect x="716.9" y="484.2" fill="#F7AD26" width="5.6" height="23.6"/>
			<rect x="595.1" y="694" fill="#F7AD26" width="16.8" height="194.1"/>
			<rect x="824" y="694" fill="#F7AD26" width="16.8" height="194.1"/>
		</g>
		<path fill="#C83621" d="M131.8,773.4v-28H152v-11h-20.2v-17.9h5v-8.4h-5v-13.4h5v-8.4h-5v-13.4h5v-8.4h-5v-13.4h5V643h-5v-13.4h5
			v-8.4h-5v-9.5l-45.2-29l-41.8,29v9.5h-5v8.4h5V643h-5v8.4h5v13.4h-5v8.4h5v13.4h-5v8.4h5v13.4h-5v8.4h5v17.9H24.6v11h20.2v28H-2
			v118.7h46.8h6.7h15.1V751.7c0-2.2,0.3-4.2,0.9-6.2c0.1-0.4,0.3-0.8,0.4-1.1c0.1-0.2,0.2-0.4,0.2-0.7c0.1-0.4,0.3-0.7,0.5-1.1
			c0.1-0.2,0.2-0.4,0.3-0.6c0.2-0.4,0.4-0.7,0.6-1.1c0.1-0.1,0.2-0.3,0.2-0.4c1.1-1.8,2.4-3.4,4-4.9c0,0,0.1-0.1,0.1-0.1
			c0.4-0.4,0.8-0.7,1.2-1l0,0c3.7-2.8,8.3-4.5,13.3-4.5c5,0,9.6,1.7,13.3,4.5c0.4,0.3,0.8,0.7,1.2,1c0,0,0.1,0.1,0.1,0.1
			c1.6,1.4,2.9,3.1,4,4.9c0.1,0.1,0.2,0.3,0.2,0.4c0.2,0.4,0.4,0.7,0.6,1.1c0.1,0.2,0.2,0.4,0.3,0.6c0.2,0.4,0.3,0.7,0.5,1.1
			c0.1,0.2,0.2,0.4,0.2,0.7c0.1,0.4,0.3,0.8,0.4,1.1c0.6,2,0.9,4.1,0.9,6.2v140.5h5h16.7H193V773.4H131.8z"/>
		<path fill="#C83621" d="M973.8,767.4v-28H994v-11h-20.2v-17.9h5v-8.4h-5v-13.4h5v-8.4h-5v-13.4h5v-8.4h-5v-13.4h5V637h-5v-13.4h5
			v-8.4h-5v-9.5l-45.2-29l-41.8,29v9.5h-5v8.4h5V637h-5v8.4h5v13.4h-5v8.4h5v13.4h-5v8.4h5v13.4h-5v8.4h5v17.9h-20.2v11h20.2v28H840
			v118.7h46.8h6.7h15.1V745.7c0-2.2,0.3-4.2,0.9-6.2c0.1-0.4,0.3-0.8,0.4-1.1c0.1-0.2,0.2-0.4,0.2-0.7c0.1-0.4,0.3-0.7,0.5-1.1
			c0.1-0.2,0.2-0.4,0.3-0.6c0.2-0.4,0.4-0.7,0.6-1.1c0.1-0.1,0.2-0.3,0.2-0.4c1.1-1.8,2.4-3.4,4-4.9c0,0,0.1-0.1,0.1-0.1
			c0.4-0.4,0.8-0.7,1.2-1l0,0c3.7-2.8,8.3-4.5,13.3-4.5c5,0,9.6,1.7,13.3,4.5c0.4,0.3,0.8,0.7,1.2,1c0,0,0.1,0.1,0.1,0.1
			c1.6,1.4,2.9,3.1,4,4.9c0.1,0.1,0.2,0.3,0.2,0.4c0.2,0.4,0.4,0.7,0.6,1.1c0.1,0.2,0.2,0.4,0.3,0.6c0.2,0.4,0.3,0.7,0.5,1.1
			c0.1,0.2,0.2,0.4,0.2,0.7c0.1,0.4,0.3,0.8,0.4,1.1c0.6,2,0.9,4.1,0.9,6.2v140.5h5h16.7h61.2V767.4H973.8z"/>
		<polygon fill="#A7191D" points="272.5,843.1 272.5,811.1 255.6,811.1 255.6,728.1 244.4,715.3 257,715.3 257,708.9 248.6,708.9 
			231.7,656.2 231.7,410.3 218.2,394.2 204.7,410.3 204.7,656.2 187.9,708.9 179.5,708.9 179.5,715.3 192.1,715.3 180.9,728.1 
			180.9,811.1 164,811.1 164,843.1 154.2,843.1 154.2,897.4 218.2,897.4 282.3,897.4 282.3,843.1 		"/>
		<path fill="#A7191D" d="M1431.8,665.2c-9.5,10.7-23.2,17.4-35.8,21.7l-15.4-14.9l-2.8-5.8c1.9-0.5,3.9-1.2,6-2.1
			c28.8-13.2,24.4-48.6,24.4-48.6c-10.4,11.7-26,18.7-39.5,22.9l-8.6-8l-3.2-6.5c1-0.4,2.1-0.8,3.2-1.3
			c28.8-13.2,24.4-48.6,24.4-48.6c-8.6,9.7-20.8,16.2-32.4,20.5l-11.8-11.5c22.5-10.3,19.1-37.9,19.1-37.9
			c-7.4,8.3-18.1,13.6-27.8,16.9l-11.2-12.5c1.1-0.3,2.3-0.6,3.5-1.2c14.9-6.8,12.6-25.1,12.6-25.1c-5.3,5.9-13.1,9.5-20,11.7
			l-8.8-11.1l-1.3-2.7c0.4-0.1,0.8-0.3,1.2-0.5c12.3-5.7,10.4-20.7,10.4-20.7c-4.5,5.1-11.3,8.1-17.2,9.9l-11-22.3l-8.9-41.4
			l-8.9,41.4l-11,22.3c-5.8-1.8-12.6-4.8-17.2-9.9c0,0-1.9,15.1,10.4,20.7c0.4,0.2,0.8,0.3,1.2,0.5l-1.3,2.7l-8.8,11.1
			c-6.9-2.2-14.7-5.8-20-11.7c0,0-2.3,18.2,12.6,25.1c1.2,0.6,2.4,0.9,3.5,1.2l-11.2,12.5c-9.8-3.3-20.4-8.6-27.8-16.9
			c0,0-3.5,27.6,19.1,37.9l-11.8,11.5c-11.6-4.3-23.7-10.8-32.4-20.5c0,0-4.4,35.3,24.4,48.6c1.1,0.5,2.1,0.9,3.2,1.3l-3.2,6.5
			l-8.6,8c-13.5-4.2-29-11.2-39.5-22.9c0,0-4.4,35.3,24.4,48.6c2.1,1,4.1,1.6,6,2.1l-2.8,5.8l-15.4,14.9
			c-12.6-4.3-26.3-11.1-35.8-21.7c0,0-4.4,35.3,24.4,48.6c1.9,0.9,3.6,1.5,5.4,2l-0.9,1.9v16.6v154h122h122v-154v-16.6l-0.9-1.9
			c1.7-0.5,3.5-1.1,5.4-2C1436.2,700.5,1431.8,665.2,1431.8,665.2z"/>
		<path fill="#A7191D" d="M882.8,725.8c-6.9,7.8-16.9,12.7-26.1,15.8l-11.3-10.9l-2.1-4.2c1.4-0.4,2.9-0.9,4.4-1.6
			c21-9.6,17.8-35.4,17.8-35.4c-7.6,8.5-18.9,13.6-28.8,16.7l-6.2-5.8l-2.3-4.7c0.8-0.3,1.5-0.6,2.3-0.9c21-9.6,17.8-35.4,17.8-35.4
			c-6.3,7.1-15.1,11.8-23.6,14.9l-8.6-8.4c16.4-7.5,13.9-27.6,13.9-27.6c-5.4,6-13.2,9.9-20.3,12.3l-8.1-9.1
			c0.8-0.2,1.7-0.5,2.5-0.9c10.9-5,9.2-18.3,9.2-18.3c-3.9,4.3-9.5,6.9-14.6,8.5l-6.4-8.1l-1-2c0.3-0.1,0.6-0.2,0.8-0.3
			c9-4.1,7.6-15.1,7.6-15.1c-3.3,3.7-8.2,5.9-12.5,7.2l-8-16.2l-6.5-30.1l-6.5,30.1l-8,16.2c-4.3-1.3-9.2-3.5-12.5-7.2
			c0,0-1.4,11,7.6,15.1c0.3,0.1,0.6,0.2,0.8,0.3l-1,2l-6.4,8.1c-5-1.6-10.7-4.2-14.6-8.5c0,0-1.7,13.3,9.2,18.3
			c0.9,0.4,1.7,0.7,2.5,0.9l-8.1,9.1c-7.1-2.4-14.9-6.3-20.3-12.3c0,0-2.5,20.1,13.9,27.6l-8.6,8.4c-8.4-3.1-17.3-7.9-23.6-14.9
			c0,0-3.2,25.7,17.8,35.4c0.8,0.4,1.5,0.7,2.3,0.9l-2.3,4.7l-6.2,5.8c-9.8-3-21.2-8.2-28.8-16.7c0,0-3.2,25.7,17.8,35.4
			c1.5,0.7,3,1.2,4.4,1.6l-2.1,4.2l-11.3,10.9c-9.2-3.1-19.2-8.1-26.1-15.8c0,0-3.2,25.7,17.8,35.4c1.3,0.6,2.7,1.1,3.9,1.4
			l-0.7,1.4V776v112.2h88.9h88.9V776v-12.1l-0.7-1.4c1.3-0.4,2.6-0.8,3.9-1.4C886,751.5,882.8,725.8,882.8,725.8z"/>
		<path fill="#B52B16" d="M626,867.3l6.6-6.6V841h-8v-20.4l-11.7-11.7v-13.1l-8.8-8.8v-23.4h-8.8L607,752c0,0-20.4-10.2-27.7-42.3
			c-7.3-32.1-4.4-54-26.3-61.3v-21.9h-11.7v-17.5H553v-13.1l-7.3-7.3l-19-100.7c0,0,5.8-10.2,2.9-32.1c-2.9-21.9-7.3-51.1-7.3-51.1
			s11.7-7.3-4.4-20.4c-16.1,13.1-4.4,20.4-4.4,20.4s-4.4,29.2-7.3,51.1c-2.9,21.9,2.9,32.1,2.9,32.1l-19,100.7l-7.3,7.3v13.1h11.7
			v17.5H483v21.9c-21.9,7.3-19,29.2-26.3,61.3S429,752,429,752l11.7,11.7h-8.8V787l-8.8,8.8v13.1l-11.7,11.7V841h-8v19.7l6.6,6.6
			h-8.8l1.5,21.9H518h115.3l1.5-21.9H626z"/>
		<path fill="#A7191D" d="M427.6,535.3l27.4-35.1l0.9,0l22.4-29.1c0,0-13,17-38.9,17c-25.9,0-44.8-14.5-44.8-14.5
			s-18.9,18.2-41.3,18.2c-22.4,0-46-18.2-46-18.2s-24.8,15.7-43.6,15.7c-18.9,0-44.8-15.7-44.8-15.7l16.5,25.4l0.1,0l28.3,36.3h14.9
			v19.4h-20.2v21.8h20.2v319.7H293V576.5h105.2v319.7h14.4V576.5h20.2v-21.8h-20.2v-19.4H427.6z M398.2,554.7H293v-19.4h105.2V554.7
			z"/>
		<path fill="#A7191D" d="M686.5,822.5v-28.7l-16-16v-25.1c0,0,0.6-7-8.1-15.7V726c0,0-0.6-6.1-7.8-6.1v-2.3h3.1v-4.8h-2.9v-2.5h5.2
			v-3.2H654v-2h3.6v-4.1h-4.1v-2h4.1v-5.2l-4.6-4.7v-26.4l-3.7-3.7v-4l-2.7-2.8v-3.8l-2.3-2.3v-3.6H642v-18.8l-3.2-9.2l-3.2,9.2
			v18.8h-2.3v3.6l-2.3,2.3v3.8l-2.7,2.8v4l-3.7,3.7v26.4l-4.6,4.7v5.2h4.1v2h-4.1v4.1h3.6v2h-5.9v3.2h5.2v2.5h-2.9v4.8h3.1v2.3
			c-7.2,0-7.8,6.1-7.8,6.1v10.9c-8.7,8.8-8.1,15.7-8.1,15.7v25.1l-16,16v28.7H583v67.4h112.6v-67.4H686.5z"/>
		<path fill="#8C111A" d="M1157.2,768.8V740l-16-16v-25.1c0,0,0.6-7-8.1-15.7v-10.9c0,0-0.6-6.1-7.8-6.1V664h3.1v-4.8h-2.9v-2.5h5.2
			v-3.2h-5.9v-2h3.6v-4.1h-4.1v-2h4.1v-5.2l-4.6-4.7V609l-3.7-3.7v-4l-2.7-2.8v-3.8l-2.3-2.3v-3.6h-2.3V570l-3.2-9.2l-3.2,9.2v18.8
			h-2.3v3.6l-2.3,2.3v3.8l-2.7,2.8v4l-3.7,3.7v26.4l-4.6,4.7v5.2h4.1v2h-4.1v4.1h3.6v2h-5.9v3.2h5.2v2.5h-2.9v4.8h3.1v2.3
			c-7.2,0-7.8,6.1-7.8,6.1v10.9c-8.7,8.8-8.1,15.7-8.1,15.7V724l-16,16v28.7h-8.3v121.8h112.6V768.8H1157.2z"/>
		<rect x="-17" y="878.2" fill="#7B0708" width="1456" height="36"/>
	</g>
	<g clip-path="url(#SVGID_2_)">
		<path fill="#9B8873" d="M1276.5,850.5c-35.1,0-70-3.8-104.2-7.2c-14.7-1.4-83.7-7-90.5,7.5c-10.4,22.2,78.2,36.7,92.5,36
			c20-0.9,96.4-0.2,106.5-20.7C1284.2,859.2,1282.1,855.6,1276.5,850.5z"/>
		<path fill="#C1AE97" d="M1054.9,566.4c-52.4,6.1-51.7,120.5-54.9,157.2c-1.3,14.3,1.9,33.5-1.9,47.4
			c-4.2,15.3-12.8,29.3-24.6,39.8c-32.2,28.4-36,37.9-62.5,62.5c-18.2,16.9-62.1,16.4-67.9,39.4c9.6,6.7,19.8,2.9,29.7,0.7
			c0.6,13.8-14.5,19-20.1,30.5c-7.4,15.2,0.8,32.1,20,21.8c9.5-5.1,20.6-14.3,28.8-22.3c9.4-9.2,14-31.8,22.7-39.8
			c38.1-34.8,122.3-43.1,140.2-90.9c11.5-30.7,7.3-74.5,9.4-108c1-17.1,3.5-35.9,5.8-53c2.3-16.8,9.6-34.1,9.4-51.1
			C1088.7,580.2,1077.6,563.7,1054.9,566.4z"/>
		<path fill="#C1AE97" d="M1287.9,659.2c17-51.1,17-92.8,17-92.8s-58.7,1.9-72-17c-13.3-18.9-18.9-51.1-18.9-51.1l-36,17l-36-17
			c0,0-5.7,32.2-18.9,51.1c-13.3,18.9-72,17-72,17s0,41.7,17,92.8c17,51.1-15.2,193.2-15.2,193.2l125.1,1.9h123.1
			C1301.1,854.3,1270.8,710.3,1287.9,659.2z"/>
		<path fill="#9B8873" d="M1119.6,555.1c0,0,15.2-26.2,19.5-44.8l78.7,3.4c0,0-14.4,24.5-33.8,28.8c-14.1,3.1-35.5-11.8-35.5-11.8
			L1119.6,555.1z"/>
		<path fill="#C1AE97" d="M1182,327.8c-1.3,0-2.6,0-4,0c-1.4,0-2.7,0-4,0c-47,1.1-83.8,43.2-82.3,92.9c0,0.9,0.1,1.9,0.1,2.8
			c1,34.1,15.4,66.5,40.4,88c23.6,20.4,45.8,22.7,45.8,22.7s22.2-2.3,45.8-22.7c25-21.6,39.4-53.9,40.4-88c0-0.9,0.1-1.8,0.1-2.8
			C1265.8,371,1229,328.9,1182,327.8z"/>
		<path fill="#C1AE97" d="M1104.2,422.4c-15.9-15.7-32.4-14.9-28.8,9.5c1.2,8.4,6.5,14.2,8.5,22.3c1.6,6.5-1.6,20.8,1.9,26.6
			C1104.9,513.2,1142.9,427.2,1104.2,422.4z"/>
		<path fill="#9B8873" d="M1034.1,854.3c38.4-24,30.3-88.1,30.3-126.9c0-21.9,0.6-43.6,3.8-64.4c2.8-18.2,2.7-45.5,9.6-61.8
			c1.1,22.6,6.2,46.3,7.5,69.9c1.6,29.7-6,58.9-7.5,88.6c-1.1,23.2,2.3,44.7,1.8,68.2c-0.3,15.7,0,20.3-15.1,26.1
			C1053.5,858,1040.8,866.2,1034.1,854.3z"/>
		<path fill="#C1AE97" d="M1256.4,422.4c15.9-15.7,32.4-14.9,28.8,9.5c-1.2,8.4-6.5,14.2-8.5,22.3c-1.6,6.5,1.6,20.8-1.9,26.6
			C1255.6,513.2,1217.6,427.2,1256.4,422.4z"/>
		<path fill="#4F4A46" d="M1274.5,350.5c-8-37.9-96.4-66.3-96.4-66.3s-88.4,28.4-96.4,66.3c-3.6,17.1-6.1,49.3,11,73
			c0,0,9.1-54,33.2-63.5c24.1-9.5,52.2,0,52.2,0s28.1-9.5,52.2,0c24.1,9.5,33.2,63.5,33.2,63.5
			C1280.6,399.8,1278.1,367.6,1274.5,350.5z"/>
		<path fill="#4F4A46" d="M1210.7,245.3c-3-32.7-32.7-65.3-32.7-65.3s-29.7,32.7-32.7,65.3c-3,32.7,32.7,65.3,32.7,65.3
			S1213.7,278,1210.7,245.3z"/>
		<path fill="#B5A38F" d="M1356.1,763.4c0.1-30.3-0.7-66.8-9.5-94.6c-7.3-23-2.4-64.2-22.6-81.5c-11.1-9.5-67.7-18.9-81.6-9.4
			c-32.4,22.2,39.5,36.4,24.7,62.5v15.2c13.2,24.2,8,69.6,10.9,98.5c3.4,33.5,10,32.1,8,66.3c-14.4,6.4-10.7,19.4-26.9,22.3
			c-16.9,3.1-25.7,1.5-41.2-6.7c-27.1-14.2-59-18.1-88.9-9.6c3.9,18.6,22.5,8.2,31.8,18.2c-16.8,5.6-30.6,1-44.2-4.5
			c-0.8,0.3-1.8,0.4-2.9,0.3c-4.3-0.5-10.5-1.4-14.3,1.2c-2.6,1.8-3.3,6.3-1.1,8.5c5,4.9,11.7,8.1,17.9,11.2
			c3.9,1.9,7.8,3.7,11.8,5.4c22.7,6,48.2,11.4,69,10.4c30-1.4,56.8-11.4,89-11.4c30.3,0,56.4,3.1,73.3-25.1
			C1375.7,813.4,1356,795,1356.1,763.4z"/>
		<path fill="#9B8873" d="M1329.8,825.9c-4.7-3.4-23.9-8.7-26.4-11.7c-6.3-7.7-2.3-17.7-2.3-28c0.1-24-5.7-46.8-5.7-71.6
			c0.1-27.7-0.8-53.3-6.2-80c-2.9-14.2-5.7-21-14.1-32.6c-5.9-8-16.4-17.5-19-27.9c-5.9,0.5-10.8,1.6-13.7,3.7
			c-32.4,22.2,39.5,36.4,24.7,62.5v15.2c13.2,24.2,8,69.6,10.9,98.5c3.4,33.5,10,32.1,8,66.3c-2.9,1.3-5,2.8-6.7,4.5
			C1296.7,829.9,1320.7,835.3,1329.8,825.9z"/>
		<path fill="#E7B33B" d="M1223.5,530.4c16.8,25.6,39.4,16.7,64,23.2c12.7,3.4,42.1,20.2,50.9,30.3c-33.5,42.5-42.2,105.4-82.2,144
			c-21.6,20.9-53.8,34.5-80,48.3c-26.9,14.2-52.8,29.9-79.5,44c-16.2,8.6-28.7,15.4-45.6,20.8c21-19.4,12.5-45.8,27.9-66.8
			c19-25.9,50.5-42.1,66.2-69.6c16.5-29,13.5-64.7,36.5-89.5c10.6-11.5,20.3-17.1,24.6-31.7c4.5-15.4,7.8-23.2,15.7-37.4
			C1224.2,542.4,1221.6,533.8,1223.5,530.4z"/>
		<path fill="#B29E8A" d="M1304.9,860c-53.4,0-93.4-7.8-143.9,15.2c-8.6,3.9-25.2-7.7-32-12c-7.8-5-16.2-7.2-24.8-10.2
			c-15.3-5.4-29.6-14.2-45.2-18.7c-15.9-4.5-32.7-4.7-49.1-2.9c-23,2.6-43.9,12.7-63,25.4c-22.5,14.9-39.8,48.8-28,76.7
			c11,26,57.3,28.2,81,26.9c33.3-1.8,65.3-7.8,98.5-11.4c30.7-3.3,57.4-17.8,87.2-22.7c30-4.9,60.9-8.4,90.9-17
			c10.4-3,85.4-28.4,85.9-37.4c0.2-0.4,0.4-0.7,0.5-1.1C1345.1,859.5,1325.1,860,1304.9,860z"/>
		<path fill="#B29E8A" d="M1462.9,890.7c-36.7-65.9-120.4-21.2-176.7-39.8l-47.4,9.5c23,3.9,40.7,11.7,64.4,11.4
			c14.6-0.2,43.8-8.9,52.8,5.3c-14.9,5-29.7,5.7-45.2,8.1c-30.9,4.9-62,20.6-92.8,29.8c-36,10.7-67.6,8-104.2,9.9
			c-32.1,1.7-64.4,12.1-96.6,16.9c-22,3.3-44.7,3-66.9,5.3c-9.2,0.9-10,14-1,16.1c18.7,4.4,41.2,5.9,54.7,7.1
			c31.3,2.7,61.2,0,92.8,0c31.1,0,56.8,8.2,87.1,11.3c36.2,3.6,72.5,7.7,109.8,7.7c41.7,0,74.3-5.8,112.3-22.8
			C1434.4,953.8,1482,925.1,1462.9,890.7z"/>
		<path fill="#9B8873" d="M1056.8,940c29.2-7.6,57.7-11.5,89-9.9c64.4,3.3,114.8-15.7,174.3-37.4c11-4,26.7-4.5,36.4-9.5
			c20-10.4,2.5-14.5-13.7-15.6c-22.7-1.5-46.8-1.5-69.8,0.6c9.6,2.1,19.3,3.8,30.3,3.6c14.6-0.2,43.8-8.9,52.8,5.3
			c-14.9,5-29.7,5.7-45.2,8.1c-30.9,4.9-62,20.6-92.8,29.8c-36,10.7-67.6,8-104.2,9.9c-32.1,1.7-64.4,12.1-96.6,16.9
			c-3.6,0.5-7.1,1-10.7,1.3C1022.1,945.1,1036.9,945.2,1056.8,940z"/>
		<path fill="#DBA12C" d="M1242.5,550.3c-23.4,8.8-21.9,46.9-40.3,64c-9.5,8.8-15.1,12.2-20.4,23.7c-4.1,8.9-5.1,23.4-7.8,30
			c5.1-22.6,23-41.7,37.5-55.6C1227.5,597,1231.6,570.9,1242.5,550.3z"/>
		<path fill="#DBA12C" d="M1289.8,581.3c-10,5.5-11.8,37.2-17.9,49.3c-6.5,12.9-15.2,25.7-24.4,36.7c-19.2,23.1-43.1,18.8-66.9,31.3
			c-18.7,9.8-26.5,28.1-37.5,44c-13.2,19.2-31.2,24.6-51.7,34.4c55.1,3.1,62.5-65.8,110.4-76.8c29.3-6.7,50.2-3.2,63.6-34.3
			c10.5-24.3,20.6-47.7,19.6-74.9"/>
		<path fill="#DBA12C" d="M1177.2,734.6l13-4.9c-9.8,8.6-15.5,26.5-26,33.9c-9.7,6.8-30.8,9-42.5,11.4
			c-28.2,5.9-37.7,14.6-52.4,38.9c9.4-10.1,20.2-26,32.8-32.1c14-6.8,32.7-4.8,47.3-9.3c28.1-8.6,48.5-40.6,66.7-62.1
			C1205.5,715.4,1186.1,726.4,1177.2,734.6z"/>
	</g>
	<g clip-path="url(#SVGID_2_)">
		<path fill="#50A7B5" d="M294,136.3h2.2v15h7.2v1.8H294V136.3z"/>
		<path fill="#50A7B5" d="M316.3,146.9c0,4.5-3.1,6.4-6,6.4c-3.3,0-5.8-2.4-5.8-6.2c0-4,2.6-6.4,6-6.4
			C314,140.7,316.3,143.2,316.3,146.9z M306.7,147.1c0,2.6,1.5,4.6,3.7,4.6c2.1,0,3.7-2,3.7-4.7c0-2-1-4.6-3.6-4.6
			C307.9,142.4,306.7,144.8,306.7,147.1z"/>
		<path fill="#50A7B5" d="M319.1,144.8c0-1.4,0-2.6-0.1-3.8h1.9l0.1,2.4h0.1c0.5-1.6,1.9-2.6,3.3-2.6c0.2,0,0.4,0,0.6,0.1v2.1
			c-0.2,0-0.4-0.1-0.7-0.1c-1.5,0-2.6,1.2-2.9,2.8c0,0.3-0.1,0.6-0.1,1v6.4h-2.2V144.8z"/>
		<path fill="#50A7B5" d="M328.2,147.4c0,3,1.9,4.2,4.1,4.2c1.6,0,2.5-0.3,3.3-0.6l0.4,1.6c-0.8,0.3-2.1,0.7-4,0.7
			c-3.7,0-5.9-2.4-5.9-6.1s2.1-6.5,5.7-6.5c3.9,0,5,3.5,5,5.7c0,0.4,0,0.8-0.1,1H328.2z M334.6,145.9c0-1.4-0.6-3.6-3-3.6
			c-2.2,0-3.2,2-3.4,3.6H334.6z"/>
		<path fill="#50A7B5" d="M339.5,144.3c0-1.2,0-2.3-0.1-3.3h1.9l0.1,1.9h0.1c0.7-1.1,1.8-2.2,3.8-2.2c1.6,0,2.9,1,3.4,2.4h0
			c0.4-0.7,0.8-1.2,1.3-1.6c0.7-0.5,1.5-0.8,2.7-0.8c1.6,0,4,1,4,5.2v7.1h-2.1v-6.8c0-2.3-0.8-3.7-2.6-3.7c-1.2,0-2.2,0.9-2.6,2
			c-0.1,0.3-0.2,0.7-0.2,1.1v7.5H347v-7.2c0-1.9-0.8-3.3-2.5-3.3c-1.4,0-2.4,1.1-2.7,2.2c-0.1,0.3-0.2,0.7-0.2,1.1v7.3h-2.1V144.3z"
			/>
		<path fill="#50A7B5" d="M368,137.6c0,0.7-0.5,1.3-1.4,1.3c-0.8,0-1.3-0.6-1.3-1.3c0-0.8,0.6-1.4,1.4-1.4
			C367.5,136.2,368,136.8,368,137.6z M365.6,153.1V141h2.2v12.1H365.6z"/>
		<path fill="#50A7B5" d="M371.4,144.9c0-1.5,0-2.8-0.1-3.9h2l0.1,2.1h0c0.9-1.5,2.3-2.3,4.3-2.3c2.9,0,5.1,2.5,5.1,6.1
			c0,4.3-2.6,6.5-5.5,6.5c-1.6,0-3-0.7-3.7-1.9h0v6.6h-2.2V144.9z M373.6,148.2c0,0.3,0,0.6,0.1,0.9c0.4,1.5,1.7,2.6,3.3,2.6
			c2.3,0,3.7-1.9,3.7-4.7c0-2.4-1.3-4.5-3.6-4.5c-1.5,0-2.9,1.1-3.3,2.7c-0.1,0.3-0.1,0.6-0.1,0.9V148.2z"/>
		<path fill="#50A7B5" d="M385.3,150.8c0.6,0.4,1.8,0.9,2.9,0.9c1.6,0,2.3-0.8,2.3-1.8c0-1-0.6-1.6-2.2-2.2c-2.2-0.8-3.2-2-3.2-3.4
			c0-1.9,1.6-3.5,4.2-3.5c1.2,0,2.3,0.3,3,0.7l-0.5,1.6c-0.5-0.3-1.3-0.7-2.5-0.7c-1.3,0-2,0.7-2,1.6c0,1,0.7,1.4,2.3,2
			c2.1,0.8,3.2,1.8,3.2,3.6c0,2.1-1.6,3.6-4.5,3.6c-1.3,0-2.5-0.3-3.4-0.8L385.3,150.8z"/>
		<path fill="#50A7B5" d="M405.6,149.8c0,1.2,0,2.3,0.1,3.3h-1.9l-0.1-2h0c-0.6,1-1.8,2.2-4,2.2c-1.9,0-4.2-1-4.2-5.3V141h2.2v6.7
			c0,2.3,0.7,3.8,2.7,3.8c1.5,0,2.5-1,2.9-2c0.1-0.3,0.2-0.7,0.2-1.1V141h2.2V149.8z"/>
		<path fill="#50A7B5" d="M409.2,144.3c0-1.2,0-2.3-0.1-3.3h1.9l0.1,1.9h0.1c0.7-1.1,1.8-2.2,3.8-2.2c1.6,0,2.9,1,3.4,2.4h0
			c0.4-0.7,0.8-1.2,1.3-1.6c0.7-0.5,1.5-0.8,2.7-0.8c1.6,0,4,1,4,5.2v7.1h-2.1v-6.8c0-2.3-0.8-3.7-2.6-3.7c-1.2,0-2.2,0.9-2.6,2
			c-0.1,0.3-0.2,0.7-0.2,1.1v7.5h-2.1v-7.2c0-1.9-0.8-3.3-2.5-3.3c-1.4,0-2.4,1.1-2.7,2.2c-0.1,0.3-0.2,0.7-0.2,1.1v7.3h-2.1V144.3z
			"/>
		<path fill="#50A7B5" d="M445.7,135.4v14.6c0,1.1,0,2.3,0.1,3.1h-2l-0.1-2.1h0c-0.7,1.3-2.1,2.4-4.1,2.4c-2.9,0-5.2-2.5-5.2-6.1
			c0-4,2.5-6.5,5.4-6.5c1.8,0,3.1,0.9,3.6,1.8h0v-7.2H445.7z M443.5,145.9c0-0.3,0-0.6-0.1-0.9c-0.3-1.4-1.5-2.5-3.2-2.5
			c-2.3,0-3.6,2-3.6,4.7c0,2.4,1.2,4.5,3.6,4.5c1.5,0,2.8-1,3.2-2.6c0.1-0.3,0.1-0.6,0.1-0.9V145.9z"/>
		<path fill="#50A7B5" d="M460.3,146.9c0,4.5-3.1,6.4-6,6.4c-3.3,0-5.8-2.4-5.8-6.2c0-4,2.6-6.4,6-6.4
			C457.9,140.7,460.3,143.2,460.3,146.9z M450.7,147.1c0,2.6,1.5,4.6,3.7,4.6c2.1,0,3.7-2,3.7-4.7c0-2-1-4.6-3.6-4.6
			C451.8,142.4,450.7,144.8,450.7,147.1z"/>
		<path fill="#50A7B5" d="M463,135.4h2.2v17.7H463V135.4z"/>
		<path fill="#50A7B5" d="M479.9,146.9c0,4.5-3.1,6.4-6,6.4c-3.3,0-5.8-2.4-5.8-6.2c0-4,2.6-6.4,6-6.4
			C477.5,140.7,479.9,143.2,479.9,146.9z M470.3,147.1c0,2.6,1.5,4.6,3.7,4.6c2.1,0,3.7-2,3.7-4.7c0-2-1-4.6-3.6-4.6
			C471.4,142.4,470.3,144.8,470.3,147.1z"/>
		<path fill="#50A7B5" d="M482.6,144.8c0-1.4,0-2.6-0.1-3.8h1.9l0.1,2.4h0.1c0.5-1.6,1.9-2.6,3.3-2.6c0.2,0,0.4,0,0.6,0.1v2.1
			c-0.2,0-0.4-0.1-0.7-0.1c-1.5,0-2.6,1.2-2.9,2.8c0,0.3-0.1,0.6-0.1,1v6.4h-2.2V144.8z"/>
		<path fill="#50A7B5" d="M495.8,150.8c0.6,0.4,1.8,0.9,2.9,0.9c1.6,0,2.3-0.8,2.3-1.8c0-1-0.6-1.6-2.2-2.2c-2.2-0.8-3.2-2-3.2-3.4
			c0-1.9,1.6-3.5,4.2-3.5c1.2,0,2.3,0.3,3,0.7l-0.5,1.6c-0.5-0.3-1.3-0.7-2.5-0.7c-1.3,0-2,0.7-2,1.6c0,1,0.7,1.4,2.3,2
			c2.1,0.8,3.2,1.8,3.2,3.6c0,2.1-1.6,3.6-4.5,3.6c-1.3,0-2.5-0.3-3.4-0.8L495.8,150.8z"/>
		<path fill="#50A7B5" d="M508.4,137.6c0,0.7-0.5,1.3-1.4,1.3c-0.8,0-1.3-0.6-1.3-1.3c0-0.8,0.6-1.4,1.4-1.4
			C507.9,136.2,508.4,136.8,508.4,137.6z M505.9,153.1V141h2.2v12.1H505.9z"/>
		<path fill="#50A7B5" d="M514.4,137.5v3.5h3.1v1.7h-3.1v6.5c0,1.5,0.4,2.3,1.6,2.3c0.6,0,1-0.1,1.3-0.1l0.1,1.6
			c-0.4,0.2-1.1,0.3-1.9,0.3c-1,0-1.8-0.3-2.4-0.9c-0.6-0.6-0.8-1.7-0.8-3.1v-6.6h-1.9V141h1.9v-2.9L514.4,137.5z"/>
		<path fill="#50A7B5" d="M532,153.1l-0.2-1.5h-0.1c-0.7,0.9-2,1.8-3.7,1.8c-2.4,0-3.7-1.7-3.7-3.5c0-2.9,2.6-4.5,7.3-4.5v-0.2
			c0-1-0.3-2.8-2.7-2.8c-1.1,0-2.3,0.3-3.1,0.9l-0.5-1.4c1-0.6,2.4-1.1,4-1.1c3.7,0,4.6,2.5,4.6,4.9v4.5c0,1,0,2.1,0.2,2.9H532z
			 M531.7,146.9c-2.4,0-5.1,0.4-5.1,2.7c0,1.4,0.9,2.1,2.1,2.1c1.6,0,2.6-1,2.9-2c0.1-0.2,0.1-0.5,0.1-0.7V146.9z"/>
		<path fill="#50A7B5" d="M537.3,144.3c0-1.2,0-2.3-0.1-3.3h1.9l0.1,1.9h0.1c0.7-1.1,1.8-2.2,3.8-2.2c1.6,0,2.9,1,3.4,2.4h0
			c0.4-0.7,0.8-1.2,1.3-1.6c0.7-0.5,1.5-0.8,2.7-0.8c1.6,0,4,1,4,5.2v7.1h-2.1v-6.8c0-2.3-0.8-3.7-2.6-3.7c-1.2,0-2.2,0.9-2.6,2
			c-0.1,0.3-0.2,0.7-0.2,1.1v7.5h-2.1v-7.2c0-1.9-0.8-3.3-2.5-3.3c-1.4,0-2.4,1.1-2.7,2.2c-0.1,0.3-0.2,0.7-0.2,1.1v7.3h-2.1V144.3z
			"/>
		<path fill="#50A7B5" d="M559.4,147.4c0,3,1.9,4.2,4.1,4.2c1.6,0,2.5-0.3,3.3-0.6l0.4,1.6c-0.8,0.3-2.1,0.7-4,0.7
			c-3.7,0-5.9-2.4-5.9-6.1s2.1-6.5,5.7-6.5c3.9,0,5,3.5,5,5.7c0,0.4,0,0.8-0.1,1H559.4z M565.8,145.9c0-1.4-0.6-3.6-3-3.6
			c-2.2,0-3.2,2-3.4,3.6H565.8z"/>
		<path fill="#50A7B5" d="M573.3,137.5v3.5h3.1v1.7h-3.1v6.5c0,1.5,0.4,2.3,1.6,2.3c0.6,0,1-0.1,1.3-0.1l0.1,1.6
			c-0.4,0.2-1.1,0.3-1.9,0.3c-1,0-1.8-0.3-2.4-0.9c-0.6-0.6-0.8-1.7-0.8-3.1v-6.6h-1.9V141h1.9v-2.9L573.3,137.5z"/>
		<path fill="#50A7B5" d="M577.4,156.1c0.5-1.5,1.2-4.1,1.5-6l2.4-0.2c-0.6,2.1-1.7,4.9-2.4,6.1L577.4,156.1z"/>
		<path fill="#50A7B5" d="M597.9,152.6c-0.6,0.3-1.8,0.7-3.5,0.7c-3.6,0-6-2.5-6-6.2c0-3.7,2.5-6.4,6.5-6.4c1.3,0,2.4,0.3,3,0.6
			l-0.5,1.7c-0.5-0.3-1.3-0.6-2.5-0.6c-2.8,0-4.3,2-4.3,4.6c0,2.8,1.8,4.5,4.2,4.5c1.2,0,2.1-0.3,2.7-0.6L597.9,152.6z"/>
		<path fill="#50A7B5" d="M611.2,146.9c0,4.5-3.1,6.4-6,6.4c-3.3,0-5.8-2.4-5.8-6.2c0-4,2.6-6.4,6-6.4
			C608.9,140.7,611.2,143.2,611.2,146.9z M601.6,147.1c0,2.6,1.5,4.6,3.7,4.6c2.1,0,3.7-2,3.7-4.7c0-2-1-4.6-3.6-4.6
			C602.7,142.4,601.6,144.8,601.6,147.1z"/>
		<path fill="#50A7B5" d="M614,144.3c0-1.2,0-2.3-0.1-3.3h1.9l0.1,2h0c0.6-1.1,2-2.3,4-2.3c1.7,0,4.3,1,4.3,5.1v7.2H622v-7
			c0-1.9-0.7-3.6-2.8-3.6c-1.4,0-2.6,1-2.9,2.2c-0.1,0.3-0.1,0.6-0.1,1v7.3H614V144.3z"/>
		<path fill="#50A7B5" d="M627.5,150.8c0.6,0.4,1.8,0.9,2.9,0.9c1.6,0,2.3-0.8,2.3-1.8c0-1-0.6-1.6-2.2-2.2c-2.2-0.8-3.2-2-3.2-3.4
			c0-1.9,1.6-3.5,4.2-3.5c1.2,0,2.3,0.3,3,0.7l-0.5,1.6c-0.5-0.3-1.3-0.7-2.5-0.7c-1.3,0-2,0.7-2,1.6c0,1,0.7,1.4,2.3,2
			c2.1,0.8,3.2,1.8,3.2,3.6c0,2.1-1.6,3.6-4.5,3.6c-1.3,0-2.5-0.3-3.4-0.8L627.5,150.8z"/>
		<path fill="#50A7B5" d="M638.9,147.4c0,3,1.9,4.2,4.1,4.2c1.6,0,2.5-0.3,3.3-0.6l0.4,1.6c-0.8,0.3-2.1,0.7-4,0.7
			c-3.7,0-5.9-2.4-5.9-6.1s2.1-6.5,5.7-6.5c3.9,0,5,3.5,5,5.7c0,0.4,0,0.8-0.1,1H638.9z M645.3,145.9c0-1.4-0.6-3.6-3-3.6
			c-2.2,0-3.2,2-3.4,3.6H645.3z"/>
		<path fill="#50A7B5" d="M658.8,152.6c-0.6,0.3-1.8,0.7-3.5,0.7c-3.6,0-6-2.5-6-6.2c0-3.7,2.5-6.4,6.5-6.4c1.3,0,2.4,0.3,3,0.6
			l-0.5,1.7c-0.5-0.3-1.3-0.6-2.5-0.6c-2.8,0-4.3,2-4.3,4.6c0,2.8,1.8,4.5,4.2,4.5c1.2,0,2.1-0.3,2.7-0.6L658.8,152.6z"/>
		<path fill="#50A7B5" d="M664.3,137.5v3.5h3.1v1.7h-3.1v6.5c0,1.5,0.4,2.3,1.6,2.3c0.6,0,1-0.1,1.3-0.1l0.1,1.6
			c-0.4,0.2-1.1,0.3-1.9,0.3c-1,0-1.8-0.3-2.4-0.9c-0.6-0.6-0.8-1.7-0.8-3.1v-6.6h-1.9V141h1.9v-2.9L664.3,137.5z"/>
		<path fill="#50A7B5" d="M671,147.4c0,3,1.9,4.2,4.1,4.2c1.6,0,2.5-0.3,3.3-0.6l0.4,1.6c-0.8,0.3-2.1,0.7-4,0.7
			c-3.7,0-5.9-2.4-5.9-6.1s2.1-6.5,5.7-6.5c3.9,0,5,3.5,5,5.7c0,0.4,0,0.8-0.1,1H671z M677.4,145.9c0-1.4-0.6-3.6-3-3.6
			c-2.2,0-3.2,2-3.4,3.6H677.4z"/>
		<path fill="#50A7B5" d="M684.9,137.5v3.5h3.1v1.7h-3.1v6.5c0,1.5,0.4,2.3,1.6,2.3c0.6,0,1-0.1,1.3-0.1l0.1,1.6
			c-0.4,0.2-1.1,0.3-1.9,0.3c-1,0-1.8-0.3-2.4-0.9c-0.6-0.6-0.8-1.7-0.8-3.1v-6.6h-1.9V141h1.9v-2.9L684.9,137.5z"/>
		<path fill="#50A7B5" d="M700.6,149.8c0,1.2,0,2.3,0.1,3.3h-1.9l-0.1-2h0c-0.6,1-1.8,2.2-4,2.2c-1.9,0-4.2-1-4.2-5.3V141h2.2v6.7
			c0,2.3,0.7,3.8,2.7,3.8c1.5,0,2.5-1,2.9-2c0.1-0.3,0.2-0.7,0.2-1.1V141h2.2V149.8z"/>
		<path fill="#50A7B5" d="M704.3,144.8c0-1.4,0-2.6-0.1-3.8h1.9l0.1,2.4h0.1c0.5-1.6,1.9-2.6,3.3-2.6c0.2,0,0.4,0,0.6,0.1v2.1
			c-0.2,0-0.4-0.1-0.7-0.1c-1.5,0-2.6,1.2-2.9,2.8c0,0.3-0.1,0.6-0.1,1v6.4h-2.2V144.8z"/>
		<path fill="#50A7B5" d="M724.4,153.1l-0.2-1.5h-0.1c-0.7,0.9-2,1.8-3.7,1.8c-2.4,0-3.7-1.7-3.7-3.5c0-2.9,2.6-4.5,7.3-4.5v-0.2
			c0-1-0.3-2.8-2.7-2.8c-1.1,0-2.3,0.3-3.1,0.9l-0.5-1.4c1-0.6,2.4-1.1,4-1.1c3.7,0,4.6,2.5,4.6,4.9v4.5c0,1,0,2.1,0.2,2.9H724.4z
			 M724.1,146.9c-2.4,0-5.1,0.4-5.1,2.7c0,1.4,0.9,2.1,2.1,2.1c1.6,0,2.6-1,2.9-2c0.1-0.2,0.1-0.5,0.1-0.7V146.9z"/>
		<path fill="#50A7B5" d="M740.1,135.4v14.6c0,1.1,0,2.3,0.1,3.1h-2l-0.1-2.1h0c-0.7,1.3-2.1,2.4-4.1,2.4c-2.9,0-5.2-2.5-5.2-6.1
			c0-4,2.5-6.5,5.4-6.5c1.8,0,3.1,0.9,3.6,1.8h0v-7.2H740.1z M738,145.9c0-0.3,0-0.6-0.1-0.9c-0.3-1.4-1.5-2.5-3.2-2.5
			c-2.3,0-3.6,2-3.6,4.7c0,2.4,1.2,4.5,3.6,4.5c1.5,0,2.8-1,3.2-2.6c0.1-0.3,0.1-0.6,0.1-0.9V145.9z"/>
		<path fill="#50A7B5" d="M746.2,137.6c0,0.7-0.5,1.3-1.4,1.3c-0.8,0-1.3-0.6-1.3-1.3c0-0.8,0.6-1.4,1.4-1.4
			C745.7,136.2,746.2,136.8,746.2,137.6z M743.8,153.1V141h2.2v12.1H743.8z"/>
		<path fill="#50A7B5" d="M749.6,144.9c0-1.5,0-2.8-0.1-3.9h2l0.1,2.1h0c0.9-1.5,2.3-2.3,4.3-2.3c2.9,0,5.1,2.5,5.1,6.1
			c0,4.3-2.6,6.5-5.5,6.5c-1.6,0-3-0.7-3.7-1.9h0v6.6h-2.2V144.9z M751.8,148.2c0,0.3,0,0.6,0.1,0.9c0.4,1.5,1.7,2.6,3.3,2.6
			c2.3,0,3.7-1.9,3.7-4.7c0-2.4-1.3-4.5-3.6-4.5c-1.5,0-2.9,1.1-3.3,2.7c-0.1,0.3-0.1,0.6-0.1,0.9V148.2z"/>
		<path fill="#50A7B5" d="M766.3,137.6c0,0.7-0.5,1.3-1.4,1.3c-0.8,0-1.3-0.6-1.3-1.3c0-0.8,0.6-1.4,1.4-1.4
			C765.7,136.2,766.3,136.8,766.3,137.6z M763.8,153.1V141h2.2v12.1H763.8z"/>
		<path fill="#50A7B5" d="M769.4,150.8c0.6,0.4,1.8,0.9,2.9,0.9c1.6,0,2.3-0.8,2.3-1.8c0-1-0.6-1.6-2.2-2.2c-2.2-0.8-3.2-2-3.2-3.4
			c0-1.9,1.6-3.5,4.2-3.5c1.2,0,2.3,0.3,3,0.7l-0.5,1.6c-0.5-0.3-1.3-0.7-2.5-0.7c-1.3,0-2,0.7-2,1.6c0,1,0.7,1.4,2.3,2
			c2.1,0.8,3.2,1.8,3.2,3.6c0,2.1-1.6,3.6-4.5,3.6c-1.3,0-2.5-0.3-3.4-0.8L769.4,150.8z"/>
		<path fill="#50A7B5" d="M788.1,152.6c-0.6,0.3-1.8,0.7-3.5,0.7c-3.6,0-6-2.5-6-6.2c0-3.7,2.5-6.4,6.5-6.4c1.3,0,2.4,0.3,3,0.6
			l-0.5,1.7c-0.5-0.3-1.3-0.6-2.5-0.6c-2.8,0-4.3,2-4.3,4.6c0,2.8,1.8,4.5,4.2,4.5c1.2,0,2.1-0.3,2.7-0.6L788.1,152.6z"/>
		<path fill="#50A7B5" d="M793.1,137.6c0,0.7-0.5,1.3-1.4,1.3c-0.8,0-1.3-0.6-1.3-1.3c0-0.8,0.6-1.4,1.4-1.4
			C792.6,136.2,793.1,136.8,793.1,137.6z M790.7,153.1V141h2.2v12.1H790.7z"/>
		<path fill="#50A7B5" d="M796.5,144.3c0-1.2,0-2.3-0.1-3.3h1.9l0.1,2h0c0.6-1.1,2-2.3,4-2.3c1.7,0,4.3,1,4.3,5.1v7.2h-2.2v-7
			c0-1.9-0.7-3.6-2.8-3.6c-1.4,0-2.6,1-2.9,2.2c-0.1,0.3-0.1,0.6-0.1,1v7.3h-2.2V144.3z"/>
		<path fill="#50A7B5" d="M820.8,141c0,0.9-0.1,1.8-0.1,3.3v7c0,2.8-0.5,4.5-1.7,5.5c-1.2,1.1-2.9,1.4-4.4,1.4c-1.4,0-3-0.3-4-1
			l0.5-1.7c0.8,0.5,2,0.9,3.5,0.9c2.2,0,3.9-1.2,3.9-4.2V151h0c-0.7,1.1-2,2-3.8,2c-3,0-5.1-2.5-5.1-5.9c0-4.1,2.7-6.4,5.4-6.4
			c2.1,0,3.2,1.1,3.8,2.1h0l0.1-1.8H820.8z M818.5,145.8c0-0.4,0-0.7-0.1-1c-0.4-1.3-1.5-2.3-3.1-2.3c-2.1,0-3.6,1.8-3.6,4.6
			c0,2.4,1.2,4.3,3.6,4.3c1.3,0,2.6-0.8,3-2.2c0.1-0.4,0.2-0.8,0.2-1.2V145.8z"/>
		<path fill="#50A7B5" d="M830.8,147.4c0,3,1.9,4.2,4.1,4.2c1.6,0,2.5-0.3,3.3-0.6l0.4,1.6c-0.8,0.3-2.1,0.7-4,0.7
			c-3.7,0-5.9-2.4-5.9-6.1s2.1-6.5,5.7-6.5c3.9,0,5,3.5,5,5.7c0,0.4,0,0.8-0.1,1H830.8z M837.3,145.9c0-1.4-0.6-3.6-3-3.6
			c-2.2,0-3.2,2-3.4,3.6H837.3z"/>
		<path fill="#50A7B5" d="M842.1,135.4h2.2v17.7h-2.2V135.4z"/>
		<path fill="#50A7B5" d="M850.4,137.6c0,0.7-0.5,1.3-1.4,1.3c-0.8,0-1.3-0.6-1.3-1.3c0-0.8,0.6-1.4,1.4-1.4
			C849.9,136.2,850.4,136.8,850.4,137.6z M848,153.1V141h2.2v12.1H848z"/>
		<path fill="#50A7B5" d="M856.5,137.5v3.5h3.1v1.7h-3.1v6.5c0,1.5,0.4,2.3,1.6,2.3c0.6,0,1-0.1,1.3-0.1l0.1,1.6
			c-0.4,0.2-1.1,0.3-1.9,0.3c-1,0-1.8-0.3-2.4-0.9c-0.6-0.6-0.8-1.7-0.8-3.1v-6.6h-1.9V141h1.9v-2.9L856.5,137.5z"/>
		<path fill="#50A7B5" d="M860.6,156.1c0.5-1.5,1.2-4.1,1.5-6l2.4-0.2c-0.6,2.1-1.7,4.9-2.4,6.1L860.6,156.1z"/>
		<path fill="#50A7B5" d="M872.1,150.8c0.6,0.4,1.8,0.9,2.9,0.9c1.6,0,2.3-0.8,2.3-1.8c0-1-0.6-1.6-2.2-2.2c-2.2-0.8-3.2-2-3.2-3.4
			c0-1.9,1.6-3.5,4.2-3.5c1.2,0,2.3,0.3,3,0.7l-0.5,1.6c-0.5-0.3-1.3-0.7-2.5-0.7c-1.3,0-2,0.7-2,1.6c0,1,0.7,1.4,2.3,2
			c2.1,0.8,3.2,1.8,3.2,3.6c0,2.1-1.6,3.6-4.5,3.6c-1.3,0-2.5-0.3-3.4-0.8L872.1,150.8z"/>
		<path fill="#50A7B5" d="M883.5,147.4c0,3,1.9,4.2,4.1,4.2c1.6,0,2.5-0.3,3.3-0.6l0.4,1.6c-0.8,0.3-2.1,0.7-4,0.7
			c-3.7,0-5.9-2.4-5.9-6.1s2.1-6.5,5.7-6.5c3.9,0,5,3.5,5,5.7c0,0.4,0,0.8-0.1,1H883.5z M890,145.9c0-1.4-0.6-3.6-3-3.6
			c-2.2,0-3.2,2-3.4,3.6H890z"/>
		<path fill="#50A7B5" d="M905.2,135.4v14.6c0,1.1,0,2.3,0.1,3.1h-2l-0.1-2.1h0c-0.7,1.3-2.1,2.4-4.1,2.4c-2.9,0-5.2-2.5-5.2-6.1
			c0-4,2.5-6.5,5.4-6.5c1.8,0,3.1,0.9,3.6,1.8h0v-7.2H905.2z M903,145.9c0-0.3,0-0.6-0.1-0.9c-0.3-1.4-1.5-2.5-3.2-2.5
			c-2.3,0-3.6,2-3.6,4.7c0,2.4,1.2,4.5,3.6,4.5c1.5,0,2.8-1,3.2-2.6c0.1-0.3,0.1-0.6,0.1-0.9V145.9z"/>
		<path fill="#50A7B5" d="M924.6,135.4v14.6c0,1.1,0,2.3,0.1,3.1h-2l-0.1-2.1h0c-0.7,1.3-2.1,2.4-4.1,2.4c-2.9,0-5.2-2.5-5.2-6.1
			c0-4,2.5-6.5,5.4-6.5c1.8,0,3.1,0.9,3.6,1.8h0v-7.2H924.6z M922.4,145.9c0-0.3,0-0.6-0.1-0.9c-0.3-1.4-1.5-2.5-3.2-2.5
			c-2.3,0-3.6,2-3.6,4.7c0,2.4,1.2,4.5,3.6,4.5c1.5,0,2.8-1,3.2-2.6c0.1-0.3,0.1-0.6,0.1-0.9V145.9z"/>
		<path fill="#50A7B5" d="M939.1,146.9c0,4.5-3.1,6.4-6,6.4c-3.3,0-5.8-2.4-5.8-6.2c0-4,2.6-6.4,6-6.4
			C936.8,140.7,939.1,143.2,939.1,146.9z M929.6,147.1c0,2.6,1.5,4.6,3.7,4.6c2.1,0,3.7-2,3.7-4.7c0-2-1-4.6-3.6-4.6
			C930.7,142.4,929.6,144.8,929.6,147.1z"/>
		<path fill="#50A7B5" d="M948.4,147.4c0,3,1.9,4.2,4.1,4.2c1.6,0,2.5-0.3,3.3-0.6l0.4,1.6c-0.8,0.3-2.1,0.7-4,0.7
			c-3.7,0-5.9-2.4-5.9-6.1s2.1-6.5,5.7-6.5c3.9,0,5,3.5,5,5.7c0,0.4,0,0.8-0.1,1H948.4z M954.9,145.9c0-1.4-0.6-3.6-3-3.6
			c-2.2,0-3.2,2-3.4,3.6H954.9z"/>
		<path fill="#50A7B5" d="M962.1,137.6c0,0.7-0.5,1.3-1.4,1.3c-0.8,0-1.3-0.6-1.3-1.3c0-0.8,0.6-1.4,1.4-1.4
			C961.6,136.2,962.1,136.8,962.1,137.6z M959.7,153.1V141h2.2v12.1H959.7z"/>
		<path fill="#50A7B5" d="M975.6,149.8c0,1.2,0,2.3,0.1,3.3h-1.9l-0.1-2h0c-0.6,1-1.8,2.2-4,2.2c-1.9,0-4.2-1-4.2-5.3V141h2.2v6.7
			c0,2.3,0.7,3.8,2.7,3.8c1.5,0,2.5-1,2.9-2c0.1-0.3,0.2-0.7,0.2-1.1V141h2.2V149.8z"/>
		<path fill="#50A7B5" d="M979,150.8c0.6,0.4,1.8,0.9,2.9,0.9c1.6,0,2.3-0.8,2.3-1.8c0-1-0.6-1.6-2.2-2.2c-2.2-0.8-3.2-2-3.2-3.4
			c0-1.9,1.6-3.5,4.2-3.5c1.2,0,2.3,0.3,3,0.7l-0.5,1.6c-0.5-0.3-1.3-0.7-2.5-0.7c-1.3,0-2,0.7-2,1.6c0,1,0.7,1.4,2.3,2
			c2.1,0.8,3.2,1.8,3.2,3.6c0,2.1-1.6,3.6-4.5,3.6c-1.3,0-2.5-0.3-3.4-0.8L979,150.8z"/>
		<path fill="#50A7B5" d="M989.1,144.3c0-1.2,0-2.3-0.1-3.3h1.9l0.1,1.9h0.1c0.7-1.1,1.8-2.2,3.8-2.2c1.6,0,2.9,1,3.4,2.4h0
			c0.4-0.7,0.8-1.2,1.3-1.6c0.7-0.5,1.5-0.8,2.7-0.8c1.6,0,4,1,4,5.2v7.1h-2.1v-6.8c0-2.3-0.8-3.7-2.6-3.7c-1.2,0-2.2,0.9-2.6,2
			c-0.1,0.3-0.2,0.7-0.2,1.1v7.5h-2.1v-7.2c0-1.9-0.8-3.3-2.5-3.3c-1.4,0-2.4,1.1-2.7,2.2c-0.1,0.3-0.2,0.7-0.2,1.1v7.3h-2.1V144.3z
			"/>
		<path fill="#50A7B5" d="M1020.9,146.9c0,4.5-3.1,6.4-6,6.4c-3.3,0-5.8-2.4-5.8-6.2c0-4,2.6-6.4,6-6.4
			C1018.5,140.7,1020.9,143.2,1020.9,146.9z M1011.3,147.1c0,2.6,1.5,4.6,3.7,4.6c2.1,0,3.7-2,3.7-4.7c0-2-1-4.6-3.6-4.6
			S1011.3,144.8,1011.3,147.1z"/>
		<path fill="#50A7B5" d="M1034.1,135.4v14.6c0,1.1,0,2.3,0.1,3.1h-2l-0.1-2.1h0c-0.7,1.3-2.1,2.4-4.1,2.4c-2.9,0-5.2-2.5-5.2-6.1
			c0-4,2.5-6.5,5.4-6.5c1.8,0,3.1,0.9,3.6,1.8h0v-7.2H1034.1z M1031.9,145.9c0-0.3,0-0.6-0.1-0.9c-0.3-1.4-1.5-2.5-3.2-2.5
			c-2.3,0-3.6,2-3.6,4.7c0,2.4,1.2,4.5,3.6,4.5c1.5,0,2.8-1,3.2-2.6c0.1-0.3,0.1-0.6,0.1-0.9V145.9z"/>
		<path fill="#50A7B5" d="M1045.6,137.5v3.5h3.1v1.7h-3.1v6.5c0,1.5,0.4,2.3,1.6,2.3c0.6,0,1-0.1,1.3-0.1l0.1,1.6
			c-0.4,0.2-1.1,0.3-1.9,0.3c-1,0-1.8-0.3-2.4-0.9c-0.6-0.6-0.8-1.7-0.8-3.1v-6.6h-1.9V141h1.9v-2.9L1045.6,137.5z"/>
		<path fill="#50A7B5" d="M1052.3,147.4c0,3,1.9,4.2,4.1,4.2c1.6,0,2.5-0.3,3.3-0.6l0.4,1.6c-0.8,0.3-2.1,0.7-4,0.7
			c-3.7,0-5.9-2.4-5.9-6.1s2.1-6.5,5.7-6.5c3.9,0,5,3.5,5,5.7c0,0.4,0,0.8-0.1,1H1052.3z M1058.7,145.9c0-1.4-0.6-3.6-3-3.6
			c-2.2,0-3.2,2-3.4,3.6H1058.7z"/>
		<path fill="#50A7B5" d="M1063.6,144.3c0-1.2,0-2.3-0.1-3.3h1.9l0.1,1.9h0.1c0.7-1.1,1.8-2.2,3.8-2.2c1.6,0,2.9,1,3.4,2.4h0
			c0.4-0.7,0.8-1.2,1.3-1.6c0.7-0.5,1.5-0.8,2.7-0.8c1.6,0,4,1,4,5.2v7.1h-2.1v-6.8c0-2.3-0.8-3.7-2.6-3.7c-1.2,0-2.2,0.9-2.6,2
			c-0.1,0.3-0.2,0.7-0.2,1.1v7.5h-2.1v-7.2c0-1.9-0.8-3.3-2.5-3.3c-1.4,0-2.4,1.1-2.7,2.2c-0.1,0.3-0.2,0.7-0.2,1.1v7.3h-2.1V144.3z
			"/>
		<path fill="#50A7B5" d="M1084.4,144.9c0-1.5,0-2.8-0.1-3.9h2l0.1,2.1h0c0.9-1.5,2.3-2.3,4.3-2.3c2.9,0,5.1,2.5,5.1,6.1
			c0,4.3-2.6,6.5-5.5,6.5c-1.6,0-3-0.7-3.7-1.9h0v6.6h-2.2V144.9z M1086.6,148.2c0,0.3,0,0.6,0.1,0.9c0.4,1.5,1.7,2.6,3.3,2.6
			c2.3,0,3.7-1.9,3.7-4.7c0-2.4-1.3-4.5-3.6-4.5c-1.5,0-2.9,1.1-3.3,2.7c-0.1,0.3-0.1,0.6-0.1,0.9V148.2z"/>
		<path fill="#50A7B5" d="M1109.5,146.9c0,4.5-3.1,6.4-6,6.4c-3.3,0-5.8-2.4-5.8-6.2c0-4,2.6-6.4,6-6.4
			C1107.1,140.7,1109.5,143.2,1109.5,146.9z M1099.9,147.1c0,2.6,1.5,4.6,3.7,4.6c2.1,0,3.7-2,3.7-4.7c0-2-1-4.6-3.6-4.6
			S1099.9,144.8,1099.9,147.1z"/>
		<path fill="#50A7B5" d="M1112.3,144.8c0-1.4,0-2.6-0.1-3.8h1.9l0.1,2.4h0.1c0.5-1.6,1.9-2.6,3.3-2.6c0.2,0,0.4,0,0.6,0.1v2.1
			c-0.2,0-0.4-0.1-0.7-0.1c-1.5,0-2.6,1.2-2.9,2.8c0,0.3-0.1,0.6-0.1,1v6.4h-2.2V144.8z"/>
		<path fill="#50A7B5" d="M481.7,167.5c0,0.7-0.5,1.3-1.4,1.3c-0.8,0-1.3-0.6-1.3-1.3c0-0.8,0.6-1.4,1.4-1.4
			C481.2,166.2,481.7,166.8,481.7,167.5z M479.2,183v-12.1h2.2V183H479.2z"/>
		<path fill="#50A7B5" d="M485.1,174.2c0-1.2,0-2.3-0.1-3.3h1.9l0.1,2h0c0.6-1.1,2-2.3,4-2.3c1.7,0,4.3,1,4.3,5.1v7.2h-2.2v-7
			c0-1.9-0.7-3.6-2.8-3.6c-1.4,0-2.6,1-2.9,2.2c-0.1,0.3-0.1,0.6-0.1,1v7.3h-2.2V174.2z"/>
		<path fill="#50A7B5" d="M507.5,182.5c-0.6,0.3-1.8,0.7-3.5,0.7c-3.6,0-6-2.5-6-6.2c0-3.7,2.5-6.4,6.5-6.4c1.3,0,2.4,0.3,3,0.6
			l-0.5,1.7c-0.5-0.3-1.3-0.6-2.5-0.6c-2.8,0-4.3,2-4.3,4.6c0,2.8,1.8,4.5,4.2,4.5c1.2,0,2.1-0.3,2.7-0.6L507.5,182.5z"/>
		<path fill="#50A7B5" d="M512.5,167.5c0,0.7-0.5,1.3-1.4,1.3c-0.8,0-1.3-0.6-1.3-1.3c0-0.8,0.6-1.4,1.4-1.4
			C512,166.2,512.5,166.8,512.5,167.5z M510.1,183v-12.1h2.2V183H510.1z"/>
		<path fill="#50A7B5" d="M526.3,165.3v14.6c0,1.1,0,2.3,0.1,3.1h-2l-0.1-2.1h0c-0.7,1.3-2.1,2.4-4.1,2.4c-2.9,0-5.2-2.5-5.2-6.1
			c0-4,2.5-6.5,5.4-6.5c1.8,0,3.1,0.9,3.6,1.8h0v-7.2H526.3z M524.1,175.8c0-0.3,0-0.6-0.1-0.9c-0.3-1.4-1.5-2.5-3.2-2.5
			c-2.3,0-3.6,2-3.6,4.7c0,2.4,1.2,4.5,3.6,4.5c1.5,0,2.8-1,3.2-2.6c0.1-0.3,0.1-0.6,0.1-0.9V175.8z"/>
		<path fill="#50A7B5" d="M532.4,167.5c0,0.7-0.5,1.3-1.4,1.3c-0.8,0-1.3-0.6-1.3-1.3c0-0.8,0.6-1.4,1.4-1.4
			C531.9,166.2,532.4,166.8,532.4,167.5z M530,183v-12.1h2.2V183H530z"/>
		<path fill="#50A7B5" d="M546.2,165.3v14.6c0,1.1,0,2.3,0.1,3.1h-2l-0.1-2.1h0c-0.7,1.3-2.1,2.4-4.1,2.4c-2.9,0-5.2-2.5-5.2-6.1
			c0-4,2.5-6.5,5.4-6.5c1.8,0,3.1,0.9,3.6,1.8h0v-7.2H546.2z M544,175.8c0-0.3,0-0.6-0.1-0.9c-0.3-1.4-1.5-2.5-3.2-2.5
			c-2.3,0-3.6,2-3.6,4.7c0,2.4,1.2,4.5,3.6,4.5c1.5,0,2.8-1,3.2-2.6c0.1-0.3,0.1-0.6,0.1-0.9V175.8z"/>
		<path fill="#50A7B5" d="M560,179.7c0,1.2,0,2.3,0.1,3.3h-1.9l-0.1-2h0c-0.6,1-1.8,2.2-4,2.2c-1.9,0-4.2-1-4.2-5.3v-7.1h2.2v6.7
			c0,2.3,0.7,3.8,2.7,3.8c1.5,0,2.5-1,2.9-2c0.1-0.3,0.2-0.7,0.2-1.1v-7.4h2.2V179.7z"/>
		<path fill="#50A7B5" d="M563.6,174.2c0-1.2,0-2.3-0.1-3.3h1.9l0.1,2h0c0.6-1.1,2-2.3,4-2.3c1.7,0,4.3,1,4.3,5.1v7.2h-2.2v-7
			c0-1.9-0.7-3.6-2.8-3.6c-1.4,0-2.6,1-2.9,2.2c-0.1,0.3-0.1,0.6-0.1,1v7.3h-2.2V174.2z"/>
		<path fill="#50A7B5" d="M580,167.5v3.5h3.1v1.7H580v6.5c0,1.5,0.4,2.3,1.6,2.3c0.6,0,1-0.1,1.3-0.1l0.1,1.6
			c-0.4,0.2-1.1,0.3-1.9,0.3c-1,0-1.8-0.3-2.4-0.9c-0.6-0.6-0.8-1.7-0.8-3.1v-6.6H576v-1.7h1.9V168L580,167.5z"/>
		<path fill="#50A7B5" d="M601,179.7c0,1.2,0,2.3,0.1,3.3h-1.9l-0.1-2h0c-0.6,1-1.8,2.2-4,2.2c-1.9,0-4.2-1-4.2-5.3v-7.1h2.2v6.7
			c0,2.3,0.7,3.8,2.7,3.8c1.5,0,2.5-1,2.9-2c0.1-0.3,0.2-0.7,0.2-1.1v-7.4h2.2V179.7z"/>
		<path fill="#50A7B5" d="M607.3,167.5v3.5h3.1v1.7h-3.1v6.5c0,1.5,0.4,2.3,1.6,2.3c0.6,0,1-0.1,1.3-0.1l0.1,1.6
			c-0.4,0.2-1.1,0.3-1.9,0.3c-1,0-1.8-0.3-2.4-0.9c-0.6-0.6-0.8-1.7-0.8-3.1v-6.6h-1.9v-1.7h1.9V168L607.3,167.5z"/>
		<path fill="#50A7B5" d="M618.2,165.3h2.2V183h-2.2V165.3z"/>
		<path fill="#50A7B5" d="M630.7,183l-0.2-1.5h-0.1c-0.7,0.9-2,1.8-3.7,1.8c-2.4,0-3.7-1.7-3.7-3.5c0-2.9,2.6-4.5,7.3-4.5v-0.2
			c0-1-0.3-2.8-2.7-2.8c-1.1,0-2.3,0.3-3.1,0.9l-0.5-1.4c1-0.6,2.4-1.1,4-1.1c3.7,0,4.6,2.5,4.6,4.9v4.5c0,1,0,2.1,0.2,2.9H630.7z
			 M630.4,176.8c-2.4-0.1-5.1,0.4-5.1,2.7c0,1.4,0.9,2.1,2.1,2.1c1.6,0,2.6-1,2.9-2c0.1-0.2,0.1-0.5,0.1-0.7V176.8z"/>
		<path fill="#50A7B5" d="M636,183c0-0.8,0.1-2,0.1-3.1v-14.6h2.2v7.6h0c0.8-1.3,2.2-2.2,4.1-2.2c3,0,5.1,2.5,5.1,6.2
			c0,4.3-2.7,6.5-5.4,6.5c-1.7,0-3.1-0.7-4-2.3H638l-0.1,2H636z M638.3,178.2c0,0.3,0,0.5,0.1,0.8c0.4,1.5,1.7,2.6,3.3,2.6
			c2.3,0,3.7-1.9,3.7-4.6c0-2.4-1.2-4.5-3.6-4.5c-1.5,0-2.9,1-3.3,2.7c0,0.3-0.1,0.5-0.1,0.9V178.2z"/>
		<path fill="#50A7B5" d="M661.2,176.9c0,4.5-3.1,6.4-6,6.4c-3.3,0-5.8-2.4-5.8-6.2c0-4,2.6-6.4,6-6.4
			C658.9,170.6,661.2,173.2,661.2,176.9z M651.6,177c0,2.6,1.5,4.6,3.7,4.6c2.1,0,3.7-2,3.7-4.7c0-2-1-4.6-3.6-4.6
			C652.7,172.3,651.6,174.7,651.6,177z"/>
		<path fill="#50A7B5" d="M664,174.7c0-1.4,0-2.6-0.1-3.8h1.9l0.1,2.4h0.1c0.5-1.6,1.9-2.6,3.3-2.6c0.2,0,0.4,0,0.6,0.1v2.1
			c-0.2,0-0.4-0.1-0.7-0.1c-1.5,0-2.6,1.2-2.9,2.8c0,0.3-0.1,0.6-0.1,1v6.4H664V174.7z"/>
		<path fill="#50A7B5" d="M673.1,177.4c0,3,1.9,4.2,4.1,4.2c1.6,0,2.5-0.3,3.3-0.6l0.4,1.6c-0.8,0.3-2.1,0.7-4,0.7
			c-3.7,0-5.9-2.4-5.9-6.1s2.1-6.5,5.7-6.5c3.9,0,5,3.5,5,5.7c0,0.4,0,0.8-0.1,1H673.1z M679.5,175.8c0-1.4-0.6-3.6-3-3.6
			c-2.2,0-3.2,2-3.4,3.6H679.5z"/>
		<path fill="#50A7B5" d="M690.9,177.4c0,3,1.9,4.2,4.1,4.2c1.6,0,2.5-0.3,3.3-0.6l0.4,1.6c-0.8,0.3-2.1,0.7-4,0.7
			c-3.7,0-5.9-2.4-5.9-6.1s2.1-6.5,5.7-6.5c3.9,0,5,3.5,5,5.7c0,0.4,0,0.8-0.1,1H690.9z M697.3,175.8c0-1.4-0.6-3.6-3-3.6
			c-2.2,0-3.2,2-3.4,3.6H697.3z"/>
		<path fill="#50A7B5" d="M704.8,167.5v3.5h3.1v1.7h-3.1v6.5c0,1.5,0.4,2.3,1.6,2.3c0.6,0,1-0.1,1.3-0.1l0.1,1.6
			c-0.4,0.2-1.1,0.3-1.9,0.3c-1,0-1.8-0.3-2.4-0.9c-0.6-0.6-0.8-1.7-0.8-3.1v-6.6h-1.9v-1.7h1.9V168L704.8,167.5z"/>
		<path fill="#50A7B5" d="M726.1,165.3v14.6c0,1.1,0,2.3,0.1,3.1h-2l-0.1-2.1h0c-0.7,1.3-2.1,2.4-4.1,2.4c-2.9,0-5.2-2.5-5.2-6.1
			c0-4,2.5-6.5,5.4-6.5c1.8,0,3.1,0.9,3.6,1.8h0v-7.2H726.1z M723.9,175.8c0-0.3,0-0.6-0.1-0.9c-0.3-1.4-1.5-2.5-3.2-2.5
			c-2.3,0-3.6,2-3.6,4.7c0,2.4,1.2,4.5,3.6,4.5c1.5,0,2.8-1,3.2-2.6c0.1-0.3,0.1-0.6,0.1-0.9V175.8z"/>
		<path fill="#50A7B5" d="M740.7,176.9c0,4.5-3.1,6.4-6,6.4c-3.3,0-5.8-2.4-5.8-6.2c0-4,2.6-6.4,6-6.4
			C738.3,170.6,740.7,173.2,740.7,176.9z M731.1,177c0,2.6,1.5,4.6,3.7,4.6c2.1,0,3.7-2,3.7-4.7c0-2-1-4.6-3.6-4.6
			C732.2,172.3,731.1,174.7,731.1,177z"/>
		<path fill="#50A7B5" d="M743.4,165.3h2.2V183h-2.2V165.3z"/>
		<path fill="#50A7B5" d="M760.2,176.9c0,4.5-3.1,6.4-6,6.4c-3.3,0-5.8-2.4-5.8-6.2c0-4,2.6-6.4,6-6.4
			C757.9,170.6,760.2,173.2,760.2,176.9z M750.7,177c0,2.6,1.5,4.6,3.7,4.6c2.1,0,3.7-2,3.7-4.7c0-2-1-4.6-3.6-4.6
			C751.8,172.3,750.7,174.7,750.7,177z"/>
		<path fill="#50A7B5" d="M763,174.7c0-1.4,0-2.6-0.1-3.8h1.9l0.1,2.4h0.1c0.5-1.6,1.9-2.6,3.3-2.6c0.2,0,0.4,0,0.6,0.1v2.1
			c-0.2,0-0.4-0.1-0.7-0.1c-1.5,0-2.6,1.2-2.9,2.8c0,0.3-0.1,0.6-0.1,1v6.4H763V174.7z"/>
		<path fill="#50A7B5" d="M772.1,177.4c0,3,1.9,4.2,4.1,4.2c1.6,0,2.5-0.3,3.3-0.6l0.4,1.6c-0.8,0.3-2.1,0.7-4,0.7
			c-3.7,0-5.9-2.4-5.9-6.1s2.1-6.5,5.7-6.5c3.9,0,5,3.5,5,5.7c0,0.4,0,0.8-0.1,1H772.1z M778.6,175.8c0-1.4-0.6-3.6-3-3.6
			c-2.2,0-3.2,2-3.4,3.6H778.6z"/>
		<path fill="#50A7B5" d="M788.7,174.2c0-1.2,0-2.3-0.1-3.3h1.9l0.1,1.9h0.1c0.7-1.1,1.8-2.2,3.8-2.2c1.6,0,2.9,1,3.4,2.4h0
			c0.4-0.7,0.8-1.2,1.3-1.6c0.7-0.5,1.5-0.8,2.7-0.8c1.6,0,4,1,4,5.2v7.1h-2.1v-6.8c0-2.3-0.8-3.7-2.6-3.7c-1.2,0-2.2,0.9-2.6,2
			c-0.1,0.3-0.2,0.7-0.2,1.1v7.5h-2.1v-7.2c0-1.9-0.8-3.3-2.5-3.3c-1.4,0-2.4,1.1-2.7,2.2c-0.1,0.3-0.2,0.7-0.2,1.1v7.3h-2.1V174.2z
			"/>
		<path fill="#50A7B5" d="M816.2,183l-0.2-1.5h-0.1c-0.7,0.9-2,1.8-3.7,1.8c-2.4,0-3.7-1.7-3.7-3.5c0-2.9,2.6-4.5,7.3-4.5v-0.2
			c0-1-0.3-2.8-2.7-2.8c-1.1,0-2.3,0.3-3.1,0.9l-0.5-1.4c1-0.6,2.4-1.1,4-1.1c3.7,0,4.6,2.5,4.6,4.9v4.5c0,1,0,2.1,0.2,2.9H816.2z
			 M815.9,176.8c-2.4-0.1-5.1,0.4-5.1,2.7c0,1.4,0.9,2.1,2.1,2.1c1.6,0,2.6-1,2.9-2c0.1-0.2,0.1-0.5,0.1-0.7V176.8z"/>
		<path fill="#50A7B5" d="M831.9,170.9c0,0.9-0.1,1.8-0.1,3.3v7c0,2.8-0.5,4.5-1.7,5.5c-1.2,1.1-2.9,1.4-4.4,1.4c-1.4,0-3-0.4-4-1
			l0.5-1.7c0.8,0.5,2,0.9,3.5,0.9c2.2,0,3.9-1.2,3.9-4.2v-1.3h0c-0.7,1.1-2,2-3.8,2c-3,0-5.1-2.5-5.1-5.9c0-4.1,2.7-6.4,5.4-6.4
			c2.1,0,3.2,1.1,3.8,2.1h0l0.1-1.8H831.9z M829.6,175.7c0-0.4,0-0.7-0.1-1c-0.4-1.3-1.5-2.3-3.1-2.3c-2.1,0-3.6,1.8-3.6,4.6
			c0,2.4,1.2,4.3,3.6,4.3c1.3,0,2.6-0.8,3-2.2c0.1-0.4,0.2-0.8,0.2-1.2V175.7z"/>
		<path fill="#50A7B5" d="M835.3,174.2c0-1.2,0-2.3-0.1-3.3h1.9l0.1,2h0c0.6-1.1,2-2.3,4-2.3c1.7,0,4.3,1,4.3,5.1v7.2h-2.2v-7
			c0-1.9-0.7-3.6-2.8-3.6c-1.4,0-2.6,1-2.9,2.2c-0.1,0.3-0.1,0.6-0.1,1v7.3h-2.2V174.2z"/>
		<path fill="#50A7B5" d="M855.8,183l-0.2-1.5h-0.1c-0.7,0.9-2,1.8-3.7,1.8c-2.4,0-3.7-1.7-3.7-3.5c0-2.9,2.6-4.5,7.3-4.5v-0.2
			c0-1-0.3-2.8-2.7-2.8c-1.1,0-2.3,0.3-3.1,0.9l-0.5-1.4c1-0.6,2.4-1.1,4-1.1c3.7,0,4.6,2.5,4.6,4.9v4.5c0,1,0,2.1,0.2,2.9H855.8z
			 M855.5,176.8c-2.4-0.1-5.1,0.4-5.1,2.7c0,1.4,0.9,2.1,2.1,2.1c1.6,0,2.6-1,2.9-2c0.1-0.2,0.1-0.5,0.1-0.7V176.8z"/>
		<path fill="#50A7B5" d="M873.1,183l-0.2-1.5h-0.1c-0.7,0.9-2,1.8-3.7,1.8c-2.4,0-3.7-1.7-3.7-3.5c0-2.9,2.6-4.5,7.3-4.5v-0.2
			c0-1-0.3-2.8-2.7-2.8c-1.1,0-2.3,0.3-3.1,0.9l-0.5-1.4c1-0.6,2.4-1.1,4-1.1c3.7,0,4.6,2.5,4.6,4.9v4.5c0,1,0,2.1,0.2,2.9H873.1z
			 M872.8,176.8c-2.4-0.1-5.1,0.4-5.1,2.7c0,1.4,0.9,2.1,2.1,2.1c1.6,0,2.6-1,2.9-2c0.1-0.2,0.1-0.5,0.1-0.7V176.8z"/>
		<path fill="#50A7B5" d="M878.5,165.3h2.2V183h-2.2V165.3z"/>
		<path fill="#50A7B5" d="M886.8,167.5c0,0.7-0.5,1.3-1.4,1.3c-0.8,0-1.3-0.6-1.3-1.3c0-0.8,0.6-1.4,1.4-1.4
			C886.3,166.2,886.8,166.8,886.8,167.5z M884.4,183v-12.1h2.2V183H884.4z"/>
		<path fill="#50A7B5" d="M898.4,181.1L898.4,181.1c-0.7,1.2-2,2.1-4,2.1c-2.8,0-5.1-2.4-5.1-6.1c0-4.5,2.9-6.5,5.5-6.5
			c1.9,0,3.1,0.9,3.7,2.1h0l0.1-1.8h2.1c0,1-0.1,2.1-0.1,3.3v13.7h-2.2V181.1z M898.4,175.8c0-0.3,0-0.6-0.1-0.9
			c-0.3-1.3-1.5-2.5-3.1-2.5c-2.3,0-3.6,1.9-3.6,4.6c0,2.4,1.1,4.5,3.6,4.5c1.4,0,2.6-0.9,3.1-2.4c0.1-0.3,0.2-0.7,0.2-1V175.8z"/>
		<path fill="#50A7B5" d="M914.3,179.7c0,1.2,0,2.3,0.1,3.3h-1.9l-0.1-2h0c-0.6,1-1.8,2.2-4,2.2c-1.9,0-4.2-1-4.2-5.3v-7.1h2.2v6.7
			c0,2.3,0.7,3.8,2.7,3.8c1.5,0,2.5-1,2.9-2c0.1-0.3,0.2-0.7,0.2-1.1v-7.4h2.2V179.7z"/>
		<path fill="#50A7B5" d="M924.7,183l-0.2-1.5h-0.1c-0.7,0.9-2,1.8-3.7,1.8c-2.4,0-3.7-1.7-3.7-3.5c0-2.9,2.6-4.5,7.3-4.5v-0.2
			c0-1-0.3-2.8-2.7-2.8c-1.1,0-2.3,0.3-3.1,0.9l-0.5-1.4c1-0.6,2.4-1.1,4-1.1c3.7,0,4.6,2.5,4.6,4.9v4.5c0,1,0,2.1,0.2,2.9H924.7z
			 M924.3,176.8c-2.4-0.1-5.1,0.4-5.1,2.7c0,1.4,0.9,2.1,2.1,2.1c1.6,0,2.6-1,2.9-2c0.1-0.2,0.1-0.5,0.1-0.7V176.8z"/>
		<path fill="#50A7B5" d="M929.5,181.7c0-0.9,0.6-1.6,1.5-1.6c0.9,0,1.5,0.6,1.5,1.6c0,0.9-0.6,1.6-1.5,1.6
			C930.1,183.3,929.5,182.6,929.5,181.7z"/>
	</g>
	<g clip-path="url(#SVGID_2_)">
		<path fill="#FFFFFF" d="M680,58.1c0,1.9-0.2,3.9-0.7,6.1c-0.5,2.2-1,3.3-1.4,3.3c-0.4,0-0.5-0.2-0.5-0.5c0-0.1,0-0.3,0.1-0.5
			c1-2.5,1.5-5.2,1.5-8.1c0-4.5-1.3-8.2-4-10.9c-2.7-2.7-6.3-4.1-10.7-4.1c-5.9,0-12.1,2-18.3,5.9c5,3.7,7.5,8.1,7.5,13.1
			c0,8-5.4,12.8-16.3,14.3c8.9,3.1,13.4,8.9,13.4,17.2c0,6.2-2.6,11.6-7.9,16.2c-5.3,4.6-11.4,7-18.5,7c-3.4,0-6.1-0.9-8.1-2.6
			c-2-1.7-3-4.1-3-7.1c0-4.6,2.1-9.2,6.3-13.7c4.2-4.5,8.5-6.8,12.7-6.8c2.4,0,4.3,0.7,5.8,2.2c1.5,1.5,2.3,3.4,2.3,5.7
			c0,1.4-0.4,3.1-1.3,5.2c-0.9,2.1-1.6,3.1-2.1,3.1c-0.4,0-0.6-0.1-0.6-0.4c0-0.1,0.1-0.4,0.2-0.6c1.9-2.7,2.8-5.2,2.8-7.4
			c0-2-0.7-3.7-2-5c-1.3-1.3-3.1-1.9-5.2-1.9c-4.1,0-8,2.1-11.9,6.4c-3.9,4.3-5.8,8.6-5.8,13.1c0,2.4,0.8,4.3,2.4,5.9
			c1.6,1.6,3.6,2.4,6,2.4c5.5,0,10.5-2.7,15.1-8c4.6-5.3,6.9-11.2,6.9-17.6c0-6-2.9-10.4-8.6-13.2l-3.1,0.4
			c-0.9,0.1-1.7,0.2-2.6,0.2c-2.7,0-4.1-0.4-4.1-1.3c0-0.6,1.1-1,3.4-1c1.6,0,3.8,0.3,6.4,1c3.7-1.2,6.7-3.2,8.9-6
			c2.2-2.9,3.3-6.2,3.3-9.9c0-3.6-1.4-6.8-4.2-9.8c-7.9,6-15.3,16.3-22.2,30.7c-4.3,8.9-8.2,15.3-11.8,19.3
			c-3.5,3.8-8.4,7.4-14.7,10.5c-7.5,3.7-14.2,5.5-20.1,5.5c-4.8,0-8.8-1.1-12-3.3c-3.2-2.2-4.8-5-4.8-8.3c0-1.8,0.5-3.4,1.6-4.7
			c1.1-1.3,2.4-2,3.9-2c2.2,0,3.3,1.2,3.3,3.7c0,1.2-0.4,2.3-1.1,3.1c-0.7,0.9-1.6,1.3-2.7,1.3c-1.9,0-2.8-1-2.7-2.9
			c0-0.8,0-1.2-0.2-1.2c-0.6,0-0.9,1-0.9,2.9c0,3,1.5,5.5,4.4,7.4c2.9,2,6.6,3,11.1,3c7.9,0,15-2.9,21.4-8.7
			c2.8-2.5,5.2-5.1,7.2-7.9c2-2.7,6.7-9.7,14.1-20.9c3.6-5.4,7.8-10.8,12.8-16.3c5-5.5,9.2-9.5,12.6-11.8
			c-5.7-4.8-13.9-7.2-24.7-7.2c-15.2,0-28.4,5.5-39.6,16.4c-9.2,9-13.8,17.4-13.8,25.4c0,4,1.3,7.2,3.9,9.6
			c2.6,2.4,6.1,3.6,10.5,3.6c7.2,0,14.7-3.5,22.4-10.4c7.7-6.9,11.6-13.7,11.6-20.2c0-5.2-2.7-7.8-8-7.8c-5.4,0-11.1,3-17.2,8.9
			c-6.1,5.9-9.2,11.5-9.2,16.8c0,1.3,0.4,2.4,1.3,3.3c0.9,0.9,1.9,1.4,3,1.4c0.6,0.1,0.9,0.3,0.9,0.4c0,0.3-0.3,0.5-1,0.5
			c-1.7,0-3.2-0.8-4.4-2.3c-1.2-1.6-1.8-3.5-1.8-5.7c0-5.6,3.1-11,9.2-16.3c6.1-5.3,12.5-7.9,18.9-7.9c6.2,0,9.3,2.9,9.3,8.6
			c0,7-3.9,14-11.8,21.1c-7.9,7.1-15.6,10.7-23.3,10.7c-5,0-9-1.5-12-4.5c-3-3-4.5-7-4.5-12c0-10.2,5.7-19.5,17.2-27.8
			c11.5-8.4,24.2-12.6,38.1-12.6c10.5,0,19.3,2.4,26.6,7.1c6.6-4.1,12.9-6.1,19.1-6.1c4.8,0,8.7,1.4,11.6,4.3
			C678.5,49.6,680,53.4,680,58.1z"/>
		<path fill="#FFFFFF" d="M693.1,97.3c0,0.8-2.6,4.3-7.8,10.5c-4.3,5.1-7.7,7.7-10.3,7.7c-1.6,0-2.9-0.6-4-1.9
			c-1.1-1.3-1.6-2.8-1.6-4.6c0-1.4,0.7-3.4,2.1-5.9l-1.1,1.5c-3.3,4.2-5.7,7.1-7.3,8.5c-1.7,1.6-3.3,2.4-4.8,2.4
			c-1.6,0-2.9-0.6-4-1.9c-1.1-1.2-1.6-2.8-1.6-4.6c0-2.1,0.8-4.5,2.4-7.2l9.8-16.5c1.2,0.3,2.2,0.4,2.9,0.4c0.7,0,1.9-0.1,3.7-0.4
			l-12.8,21.1c-1.3,2.2-1.9,4.1-1.9,5.7c0,1.6,0.7,2.4,2,2.4c3.6,0,9.5-6.8,17.5-20.3l5.3-8.9c1.1,0.3,2,0.4,2.8,0.4
			c0.9,0,2.2-0.1,3.8-0.4l-8.6,14.1c-4.1,6.7-6.1,11-6.1,12.9c0,1.5,0.7,2.3,2.2,2.3c2.9,0,7.6-4.5,14-13.6l1.7-2.3l1-1.2
			c0.2-0.4,0.4-0.5,0.5-0.5C693,97,693.1,97.1,693.1,97.3z"/>
		<path fill="#FFFFFF" d="M742,59.6c-13.5,21.4-22,35.1-25.5,41.1c-3.6,6.1-5.3,9.9-5.3,11.5c0,1.6,0.7,2.4,2.2,2.4
			c3.3,0,8.8-5.7,16.7-17.1c0.2-0.4,0.4-0.5,0.6-0.5c0.2,0,0.3,0.1,0.3,0.3c0,0.1-0.2,0.4-0.5,0.9l-2.3,3.2
			c-6.8,9.4-11.8,14.1-15.1,14.1c-1.7,0-3-0.6-4-1.9c-1-1.2-1.6-2.8-1.6-4.8c0-1.9,0.6-4.2,1.9-6.7c-6.3,8.9-11,13.4-14,13.4
			c-1.9,0-3.5-0.8-4.8-2.5c-1.3-1.6-1.9-3.7-1.9-6.2c0-5.9,3.7-11.3,11.1-16.1c5.9-3.8,10.5-5.8,13.8-5.8c2.2,0,3.3,1.1,3.3,3.2
			c0,1-0.3,2.1-0.9,3.4l19.2-32.2c1.2,0.4,2.4,0.5,3.5,0.5C739,59.9,740.1,59.8,742,59.6z M716,88.6c0-1.9-0.9-2.9-2.6-2.9
			c-3.2,0-7.5,3.2-12.8,9.7c-5.3,6.5-8,11.7-8,15.6c0,2.4,1,3.6,3,3.6c2.9,0,7.8-5,14.8-15C714.2,94.3,716,90.6,716,88.6z"/>
		<path fill="#FFFFFF" d="M780,59.6c-13.5,21.4-22,35.1-25.5,41.1c-3.6,6.1-5.3,9.9-5.3,11.5c0,1.6,0.7,2.4,2.2,2.4
			c3.3,0,8.8-5.7,16.7-17.1c0.2-0.4,0.4-0.5,0.6-0.5c0.2,0,0.3,0.1,0.3,0.3c0,0.1-0.2,0.4-0.5,0.9l-2.3,3.2
			c-6.8,9.4-11.8,14.1-15.1,14.1c-1.7,0-3-0.6-4-1.9c-1-1.2-1.6-2.8-1.6-4.8c0-1.9,0.6-4.2,1.9-6.7c-6.3,8.9-11,13.4-14,13.4
			c-1.9,0-3.5-0.8-4.8-2.5c-1.3-1.6-1.9-3.7-1.9-6.2c0-5.9,3.7-11.3,11.1-16.1c5.9-3.8,10.5-5.8,13.8-5.8c2.2,0,3.3,1.1,3.3,3.2
			c0,1-0.3,2.1-0.9,3.4l19.2-32.2c1.2,0.4,2.4,0.5,3.5,0.5C777,59.9,778.1,59.8,780,59.6z M754,88.6c0-1.9-0.9-2.9-2.6-2.9
			c-3.2,0-7.5,3.2-12.8,9.7c-5.3,6.5-8,11.7-8,15.6c0,2.4,1,3.6,3,3.6c2.9,0,7.8-5,14.8-15C752.2,94.3,754,90.6,754,88.6z"/>
		<path fill="#FFFFFF" d="M803.5,97.2c0,0.3-0.2,0.6-0.5,1l-2.3,3.2c-6.8,9.4-11.8,14.1-15.1,14.1c-1.7,0-3.1-0.6-4.2-1.9
			c-1.1-1.2-1.6-2.8-1.6-4.7c0-2.5,1.4-5.8,4.1-9.9c4.3-6.3,6.4-10,6.4-11.2c0-1.4-0.7-2.1-2.2-2.1c-2.2,0-5.1,2.1-8.8,6.4
			c-3.6,4.1-8.5,11.8-14.8,23.1c-1.1-0.2-2-0.3-2.7-0.3c-0.8,0-1.9,0.1-3.2,0.3l7.9-14.3c1.1-2,2.7-5.1,5-9.1
			c1.2-1.9,4.8-8.1,10.9-18.5l8.2-13.9c1.1,0.2,2,0.3,2.7,0.3c1.4,0,2.8-0.2,4.1-0.5c-3.7,6-9.3,15-16.7,27c-0.2,0.4-3,5-8.4,13.9
			c6.8-10,12.1-15,16-15c1.5,0,2.9,0.7,4,2c1.1,1.3,1.6,2.9,1.6,4.9c0,2.5-1.6,6.1-4.7,10.7c-3.5,5.2-5.3,8.5-5.3,9.8
			c0,1.5,0.8,2.3,2.3,2.3c2.8,0,7.4-4.5,13.9-13.6l1.7-2.3l1-1.2c0.2-0.4,0.4-0.5,0.6-0.5C803.5,97,803.5,97,803.5,97.2z"/>
		<path fill="#FFFFFF" d="M841.6,97.3c0,0.8-2.6,4.2-7.9,10.5c-4.2,5.1-7.6,7.7-10,7.7c-1.7,0-3-0.6-4-1.9c-1-1.2-1.6-2.8-1.6-4.7
			c0-1.9,0.6-4,1.7-6.3c-3.6,5-6.3,8.4-8.2,10.2c-1.9,1.8-3.8,2.6-5.6,2.6c-1.9,0-3.5-0.8-4.8-2.5c-1.3-1.6-1.9-3.7-1.9-6.2
			c0-6.9,4.9-13,14.6-18.3c4.3-2.4,7.7-3.6,10.4-3.6c2.2,0,3.3,1.1,3.3,3.2c0,0.6-0.1,1.4-0.4,2.4l2.7-5.2c1.1,0.3,2,0.4,2.9,0.4
			c1,0,2.2-0.1,3.8-0.4l-9.5,15.8c-3.3,5.5-5,9.2-5,10.9c0,1.7,0.7,2.5,2.1,2.5c1.4,0,3.7-1.6,6.9-4.9c3.2-3.3,6.4-7.4,9.7-12.2
			c0.2-0.4,0.4-0.5,0.6-0.5C841.4,97,841.6,97.1,841.6,97.3z M826.7,88.4c0-1.8-0.8-2.6-2.4-2.6c-3.3,0-7.6,3.2-13,9.7
			c-5.4,6.5-8.1,11.7-8.1,15.7c0,2.3,1,3.5,3.1,3.5c2.5,0,6.8-4.1,12.9-12.3C824.2,95.5,826.7,90.9,826.7,88.4z"/>
	</g>
	<rect x="488.5" y="107.6" clip-path="url(#SVGID_2_)" fill="#FFFFFF" width="56.9" height="2.5"/>
	<rect x="847.5" y="107.6" clip-path="url(#SVGID_2_)" fill="#FFFFFF" width="56.9" height="2.5"/>
</g>
</svg>
